<svg width="64" height="64" viewBox="0 0 64 64" fill="none" xmlns="http://www.w3.org/2000/svg">
<rect width="64" height="64" rx="32" fill="#E2CFFC"/>
<path d="M33 27.5H44.5C44.6326 27.5 44.7598 27.4473 44.8536 27.3536C44.9473 27.2598 45 27.1326 45 27V23C45 22.7348 44.8946 22.4804 44.7071 22.2929C44.5196 22.1054 44.2652 22 44 22H33.5C33.3674 22 33.2402 22.0527 33.1464 22.1464C33.0527 22.2402 33 22.3674 33 22.5V27.5ZM39 35H44.5C44.6326 35 44.7598 34.9473 44.8536 34.8536C44.9473 34.7598 45 34.6326 45 34.5V30C45 29.8674 44.9473 29.7402 44.8536 29.6464C44.7598 29.5527 44.6326 29.5 44.5 29.5H39V35ZM27 29.5H37V35H27V29.5ZM25 29.5H19.5C19.3674 29.5 19.2402 29.5527 19.1464 29.6464C19.0527 29.7402 19 29.8674 19 30V34.5C19 34.6326 19.0527 34.7598 19.1464 34.8536C19.2402 34.9473 19.3674 35 19.5 35H25V29.5ZM33 37V41.5C33 41.6326 33.0527 41.7598 33.1464 41.8536C33.2402 41.9473 33.3674 42 33.5 42H44C44.2652 42 44.5196 41.8946 44.7071 41.7071C44.8946 41.5196 45 41.2652 45 41V37.5C45 37.3674 44.9473 37.2402 44.8536 37.1464C44.7598 37.0527 44.6326 37 44.5 37H33ZM31 27.5V22.5C31 22.3674 30.9473 22.2402 30.8536 22.1464C30.7598 22.0527 30.6326 22 30.5 22H20C19.7348 22 19.4804 22.1054 19.2929 22.2929C19.1054 22.4804 19 22.7348 19 23V27C19 27.1326 19.0527 27.2598 19.1464 27.3536C19.2402 27.4473 19.3674 27.5 19.5 27.5H31ZM31 37H19.5C19.3674 37 19.2402 37.0527 19.1464 37.1464C19.0527 37.2402 19 37.3674 19 37.5V41C19 41.2652 19.1054 41.5196 19.2929 41.7071C19.4804 41.8946 19.7348 42 20 42H30.5C30.6326 42 30.7598 41.9473 30.8536 41.8536C30.9473 41.7598 31 41.6326 31 41.5V37Z" fill="#6D0DF2"/>
</svg>
