<svg width="64" height="64" viewBox="0 0 64 64" fill="none" xmlns="http://www.w3.org/2000/svg">
<rect width="64" height="64" rx="32" fill="#E2CFFC"/>
<path fill-rule="evenodd" clip-rule="evenodd" d="M24.7133 33.5234C25.3546 34.3074 26.9866 37.2121 27.3333 38.6667H36.6666C37.0133 37.2134 38.6433 34.3088 39.2846 33.5254C40.3806 32.1885 41.0705 30.5656 41.2726 28.8488C41.4721 27.1352 41.1737 25.4005 40.4133 23.8521C39.6457 22.2921 38.4521 20.9814 36.9706 20.0714C35.4762 19.1522 33.7558 18.6659 32.0013 18.6667C30.2433 18.6667 28.5206 19.1534 27.032 20.0701C25.5502 20.9797 24.3561 22.2902 23.588 23.8501C22.8271 25.3979 22.5281 27.1321 22.7266 28.8454C22.926 30.5567 23.6146 32.1788 24.7133 33.5234ZM32.6666 24.0001L28.6666 30.0001H31.3333V34.0001L35.3333 28.0001H32.6666V24.0001Z" fill="#6D0DF2"/>
<path d="M27.3333 40.6667C27.3333 40.4899 27.4036 40.3203 27.5286 40.1953C27.6536 40.0702 27.8232 40 28 40H36C36.1768 40 36.3464 40.0702 36.4714 40.1953C36.5964 40.3203 36.6666 40.4899 36.6666 40.6667C36.6666 40.8435 36.5964 41.013 36.4714 41.1381C36.3464 41.2631 36.1768 41.3333 36 41.3333H28C27.8232 41.3333 27.6536 41.2631 27.5286 41.1381C27.4036 41.013 27.3333 40.8435 27.3333 40.6667ZM36.6666 42.6667H27.3333V44C27.3333 44.3536 27.4738 44.6928 27.7238 44.9428C27.9739 45.1929 28.313 45.3333 28.6666 45.3333H35.3333C35.6869 45.3333 36.0261 45.1929 36.2761 44.9428C36.5262 44.6928 36.6666 44.3536 36.6666 44V42.6667Z" fill="#6D0DF2"/>
</svg>
