<svg width="64" height="64" viewBox="0 0 64 64" fill="none" xmlns="http://www.w3.org/2000/svg">
<rect width="64" height="64" rx="32" fill="#E2CFFC"/>
<path d="M44 25H42V24C42 23.2044 41.6839 22.4413 41.1213 21.8787C40.5587 21.3161 39.7956 21 39 21H21C20.2044 21 19.4413 21.3161 18.8787 21.8787C18.3161 22.4413 18 23.2044 18 24V36C18 36.7956 18.3161 37.5587 18.8787 38.1213C19.4413 38.6839 20.2044 39 21 39H35V40C35 40.7956 35.3161 41.5587 35.8787 42.1213C36.4413 42.6839 37.2044 43 38 43H44C44.7956 43 45.5587 42.6839 46.1213 42.1213C46.6839 41.5587 47 40.7956 47 40V28C47 27.2044 46.6839 26.4413 46.1213 25.8787C45.5587 25.3161 44.7956 25 44 25ZM45 40C45 40.2652 44.8946 40.5196 44.7071 40.7071C44.5196 40.8946 44.2652 41 44 41H38C37.7348 41 37.4804 40.8946 37.2929 40.7071C37.1054 40.5196 37 40.2652 37 40V28C37 27.7348 37.1054 27.4804 37.2929 27.2929C37.4804 27.1054 37.7348 27 38 27H44C44.2652 27 44.5196 27.1054 44.7071 27.2929C44.8946 27.4804 45 27.7348 45 28V40ZM33 42C33 42.2652 32.8946 42.5196 32.7071 42.7071C32.5196 42.8946 32.2652 43 32 43H27C26.7348 43 26.4804 42.8946 26.2929 42.7071C26.1054 42.5196 26 42.2652 26 42C26 41.7348 26.1054 41.4804 26.2929 41.2929C26.4804 41.1054 26.7348 41 27 41H32C32.2652 41 32.5196 41.1054 32.7071 41.2929C32.8946 41.4804 33 41.7348 33 42ZM43 30C43 30.2652 42.8946 30.5196 42.7071 30.7071C42.5196 30.8946 42.2652 31 42 31H40C39.7348 31 39.4804 30.8946 39.2929 30.7071C39.1054 30.5196 39 30.2652 39 30C39 29.7348 39.1054 29.4804 39.2929 29.2929C39.4804 29.1054 39.7348 29 40 29H42C42.2652 29 42.5196 29.1054 42.7071 29.2929C42.8946 29.4804 43 29.7348 43 30Z" fill="#6D0DF2"/>
</svg>
