<svg width="64" height="64" viewBox="0 0 64 64" fill="none" xmlns="http://www.w3.org/2000/svg">
<rect width="64" height="64" rx="32" fill="#E2CFFC"/>
<path d="M45 39.9994H41V36.9994H44C44.152 36.9994 44.3019 36.9647 44.4385 36.8981C44.575 36.8314 44.6946 36.7345 44.7881 36.6148C44.8816 36.495 44.9466 36.3555 44.9781 36.2068C45.0096 36.0582 45.0068 35.9043 44.97 35.7569L40.97 19.7569C40.9158 19.5407 40.7909 19.3487 40.6152 19.2116C40.4394 19.0745 40.2229 19 40 19C39.7771 19 39.5606 19.0745 39.3848 19.2116C39.2091 19.3487 39.0842 19.5407 39.03 19.7569L35.03 35.7569C34.9932 35.9043 34.9904 36.0582 35.0219 36.2068C35.0534 36.3555 35.1184 36.495 35.2119 36.6148C35.3054 36.7345 35.425 36.8314 35.5615 36.8981C35.6981 36.9647 35.848 36.9994 36 36.9994H39V39.9994H31V37.9994H32C32.2652 37.9994 32.5196 37.894 32.7071 37.7065C32.8946 37.519 33 37.2646 33 36.9994C33 36.7342 32.8946 36.4798 32.7071 36.2923C32.5196 36.1048 32.2652 35.9994 32 35.9994H31V33.9994H32C32.2652 33.9994 32.5196 33.894 32.7071 33.7065C32.8946 33.519 33 33.2646 33 32.9994C33 32.7342 32.8946 32.4798 32.7071 32.2923C32.5196 32.1048 32.2652 31.9994 32 31.9994H21C20.7348 31.9994 20.4804 32.1048 20.2929 32.2923C20.1054 32.4798 20 32.7342 20 32.9994C20 33.2646 20.1054 33.519 20.2929 33.7065C20.4804 33.894 20.7348 33.9994 21 33.9994H22V35.9994H21C20.7348 35.9994 20.4804 36.1048 20.2929 36.2923C20.1054 36.4798 20 36.7342 20 36.9994C20 37.2646 20.1054 37.519 20.2929 37.7065C20.4804 37.894 20.7348 37.9994 21 37.9994H22V39.9994H19C18.7348 39.9994 18.4804 40.1048 18.2929 40.2923C18.1054 40.4798 18 40.7342 18 40.9994C18 41.2646 18.1054 41.519 18.2929 41.7065C18.4804 41.894 18.7348 41.9994 19 41.9994H45C45.2652 41.9994 45.5196 41.894 45.7071 41.7065C45.8946 41.519 46 41.2646 46 40.9994C46 40.7342 45.8946 40.4798 45.7071 40.2923C45.5196 40.1048 45.2652 39.9994 45 39.9994ZM29 39.9994H24V37.9994H29V39.9994ZM29 35.9994H24V33.9994H29V35.9994ZM30.5 27.9994C31.1922 27.9994 31.8689 27.7941 32.4445 27.4095C33.0201 27.025 33.4687 26.4783 33.7336 25.8388C33.9985 25.1992 34.0678 24.4955 33.9327 23.8166C33.7977 23.1376 33.4644 22.514 32.9749 22.0245C32.4854 21.535 31.8618 21.2017 31.1828 21.0666C30.5039 20.9316 29.8001 21.0009 29.1606 21.2658C28.5211 21.5307 27.9744 21.9793 27.5899 22.5549C27.2053 23.1305 27 23.8072 27 24.4994C27 25.4277 27.3687 26.3179 28.0251 26.9743C28.6815 27.6306 29.5717 27.9994 30.5 27.9994ZM30.5 22.9994C30.7967 22.9994 31.0867 23.0874 31.3334 23.2522C31.58 23.417 31.7723 23.6513 31.8858 23.9254C31.9994 24.1995 32.0291 24.5011 31.9712 24.792C31.9133 25.083 31.7704 25.3503 31.5607 25.5601C31.3509 25.7698 31.0836 25.9127 30.7926 25.9706C30.5017 26.0285 30.2001 25.9987 29.926 25.8852C29.6519 25.7717 29.4176 25.5794 29.2528 25.3328C29.088 25.0861 29 24.7961 29 24.4994C29 24.1016 29.158 23.72 29.4393 23.4387C29.7206 23.1574 30.1022 22.9994 30.5 22.9994Z" fill="#6D0DF2"/>
</svg>
