<svg width="173" height="201" viewBox="0 0 173 201" fill="none" xmlns="http://www.w3.org/2000/svg">
<path opacity="0.5" d="M12.0289 107.806L0.556429 68.7936C11.2052 59.1238 21.854 49.454 32.5638 39.9917C38.5703 34.8435 39.5497 24.6352 34.6247 18.4178C27.3594 9.5068 20.094 0.59574 12.8286 -8.31528C9.38927 -12.4895 9.24774 -16.7315 12.282 -21.4566C16.7418 -28.8555 21.2016 -36.2544 24.664 -44.0364C27.4136 -50.4815 31.7704 -52.2136 38.0809 -51.8148C49.4194 -50.8653 60.7579 -49.9159 72.0964 -48.9665C79.6079 -48.2444 87.8948 -55.4159 88.5886 -62.8346C89.7311 -73.9927 90.8126 -85.3583 91.9551 -96.5163C92.5263 -102.095 95.2549 -105.603 101.077 -106.865C109.75 -108.964 118.504 -111.538 126.932 -114.468C132.225 -116.024 136.174 -115.382 139.614 -111.208C147.144 -102.149 154.674 -93.0903 162.143 -84.2391C166.884 -78.6443 178.019 -77.635 183.537 -82.1886C192.292 -89.2724 201.19 -96.6235 209.945 -103.707C214.567 -107.547 218.943 -107.706 224.296 -104.546C231.624 -99.9367 239.236 -95.8624 246.93 -92.2631C252.569 -89.6373 254.665 -85.519 254.215 -79.5249C253.276 -68.4267 252.276 -57.536 251.277 -46.6454C250.46 -37.3869 256.627 -29.9564 265.807 -28.8233C279.548 -27.2274 293.268 -24.9492 307.13 -22.9383L318.603 16.0745C307.954 25.7443 297.305 35.4141 286.595 44.8764C280.65 50.2321 279.345 60.0852 284.534 66.4503C292.064 75.5089 299.391 84.6275 306.778 93.9536C309.892 97.7726 309.911 101.6 307.427 105.938C302.458 114.614 298.018 123.585 292.784 132.113C291.44 134.312 288.081 136.427 285.659 136.463C273.16 136.081 260.681 135.015 248.203 133.95C239.816 133.26 231.672 140.164 230.815 148.533C229.733 159.898 228.509 171.531 227.224 182.957C226.673 187.853 223.904 190.471 219.222 191.848C210.61 194.155 201.795 196.522 193.367 199.451C187.382 201.663 182.72 200.102 178.894 195.365C171.751 186.869 164.811 178.314 157.668 169.818C152.417 163.245 141.486 162.176 135.276 167.384C126.582 174.675 117.623 181.819 108.868 188.903C104.735 192.147 100.684 192.662 95.8601 189.797C88.3291 185.248 80.5945 180.758 72.6358 177.011C66.9976 174.386 64.9018 170.267 65.412 164.481C66.3509 153.383 67.3509 142.492 68.3508 131.601C69.3707 122.283 62.9397 114.705 53.759 113.572C40.0186 111.976 26.2986 109.698 12.4361 107.687L12.0289 107.806ZM174.947 96.1964C204.67 87.4558 222.082 56.4075 213.417 26.9404C204.812 -2.3192 174.057 -19.6538 144.619 -11.448C114.774 -3.1225 97.1587 27.9857 105.682 57.7202C114.204 87.4547 145.163 104.729 174.947 96.1964Z" fill="#E2CFFC"/>
</svg>
