<svg width="183" height="282" viewBox="0 0 183 282" fill="none" xmlns="http://www.w3.org/2000/svg">
<path opacity="0.5" d="M-123.611 223.166L-135.084 184.153C-124.435 174.484 -113.786 164.814 -103.076 155.352C-97.0699 150.203 -96.0905 139.995 -101.015 133.778C-108.281 124.867 -115.546 115.956 -122.812 107.045C-126.251 102.87 -126.392 98.6284 -123.358 93.9033C-118.898 86.5044 -114.439 79.1054 -110.976 71.3234C-108.227 64.8784 -103.87 63.1462 -97.5593 63.5451C-86.2208 64.4945 -74.8823 65.444 -63.5437 66.3934C-56.0322 67.1155 -47.7454 59.944 -47.0516 52.5252C-45.9091 41.3672 -44.8276 30.0016 -43.6851 18.8435C-43.1139 13.2645 -40.3853 9.75657 -34.5629 8.49533C-25.8905 6.39595 -17.1364 3.82167 -8.70807 0.892228C-3.41495 -0.664312 0.534136 -0.021988 3.97349 4.15219C11.5035 13.2109 19.0335 22.2696 26.5024 31.1207C31.2443 36.7156 42.3792 37.7249 47.8969 33.1713C56.6519 26.0875 65.5496 18.7363 74.3046 11.6525C78.9264 7.81334 83.3032 7.65361 88.6563 10.8141C95.9837 15.4231 103.596 19.4974 111.29 23.0968C116.929 25.7225 119.024 29.8409 118.575 35.8349C117.636 46.9331 116.636 57.8238 115.636 68.7145C114.82 77.973 120.986 85.4035 130.167 86.5366C143.908 88.1324 157.628 90.4107 171.49 92.4216L182.963 131.434C172.314 141.104 161.665 150.774 150.955 160.236C145.01 165.592 143.705 175.445 148.894 181.81C156.424 190.869 163.751 199.987 171.138 209.313C174.252 213.132 174.271 216.96 171.787 221.298C166.818 229.973 162.378 238.945 157.144 247.473C155.8 249.672 152.441 251.787 150.018 251.823C137.519 251.44 125.041 250.375 112.562 249.31C104.176 248.62 96.0314 255.524 95.1745 263.893C94.093 275.258 92.869 286.891 91.5839 298.317C91.0332 303.213 88.2641 305.831 83.5817 307.208C74.9703 309.515 66.1552 311.882 57.7268 314.811C51.7415 317.022 47.0801 315.462 43.2541 310.725C36.1107 302.229 29.171 293.673 22.0277 285.177C16.7771 278.605 5.84573 277.536 -0.364266 282.744C-9.05826 290.035 -18.0169 297.179 -26.7719 304.262C-30.9051 307.507 -34.9562 308.022 -39.7801 305.157C-47.3111 300.608 -55.0457 296.118 -63.0043 292.371C-68.6426 289.746 -70.7384 285.627 -70.2282 279.841C-69.2892 268.743 -68.2893 257.852 -67.2894 246.961C-66.2694 237.643 -72.7005 230.065 -81.8811 228.932C-95.6216 227.336 -109.342 225.057 -123.204 223.047L-123.611 223.166ZM39.3068 211.556C69.0297 202.816 86.4418 171.767 77.7765 142.3C69.1722 113.041 38.4169 95.706 8.97913 103.912C-20.8658 112.237 -38.4815 143.346 -29.9587 173.08C-21.4359 202.815 9.52289 220.089 39.3068 211.556Z" fill="#E2CFFC"/>
</svg>
