<svg width="64" height="64" viewBox="0 0 64 64" fill="none" xmlns="http://www.w3.org/2000/svg">
<rect width="64" height="64" rx="32" fill="#E2CFFC"/>
<path d="M46.6666 42.6673V45.334H37.3333V42.6673H40.6133L32 22.1473C31.7466 21.5207 31.3333 21.014 30.7466 20.614C30.16 20.214 29.52 20.0007 28.8133 20.0007C27.8666 20.0007 27.04 20.3607 26.3466 21.054C25.6533 21.7473 25.3333 22.5607 25.3333 23.5207V28.0007H26.6666C29.6133 28.0007 32 30.3873 32 33.334V45.334H26.6666C27.48 44.214 28 42.8407 28 41.334C28 37.654 25.0133 34.6673 21.3333 34.6673C20.3866 34.6673 19.48 34.8673 18.6666 35.2273V28.0007H22.6666V23.5207C22.6666 22.4007 22.9733 21.334 23.5066 20.4273C24.0533 19.494 24.7866 18.7473 25.7333 18.174C26.6666 17.614 27.6933 17.334 28.8133 17.334C30.0666 17.334 31.2 17.6807 32.2133 18.3607C33.2266 19.0407 34 19.9607 34.4933 21.0807L43.5466 42.6673H46.6666ZM25.3333 41.334C25.3333 43.5473 23.5466 45.334 21.3333 45.334C19.12 45.334 17.3333 43.5473 17.3333 41.334C17.3333 39.1207 19.12 37.334 21.3333 37.334C23.5466 37.334 25.3333 39.1207 25.3333 41.334ZM22.6666 41.334C22.6666 40.6007 22.0666 40.0007 21.3333 40.0007C20.6 40.0007 20 40.6007 20 41.334C20 42.0673 20.6 42.6673 21.3333 42.6673C22.0666 42.6673 22.6666 42.0673 22.6666 41.334Z" fill="#6D0DF2"/>
</svg>
