<svg width="64" height="64" viewBox="0 0 64 64" fill="none" xmlns="http://www.w3.org/2000/svg">
<rect width="64" height="64" rx="32" fill="#E2CFFC"/>
<path d="M25.3334 32.0001V33.3334H38.6667V32.0001C38.6667 30.9408 39.0869 29.9248 39.835 29.1749C40.5831 28.4251 41.5981 28.0026 42.6574 28.0001C42.6559 27.6514 42.6247 27.3035 42.564 26.9601C42.3583 25.9254 41.8503 24.975 41.1044 24.2291C40.3584 23.4831 39.408 22.9752 38.3734 22.7694C37.8587 22.6667 37.24 22.6667 36 22.6667H28C26.76 22.6667 26.1414 22.6667 25.6267 22.7694C24.5921 22.9752 23.6417 23.4831 22.8957 24.2291C22.1498 24.975 21.6418 25.9254 21.436 26.9601C21.3754 27.3035 21.3441 27.6514 21.3427 28.0001C22.402 28.0026 23.417 28.4251 24.1651 29.1749C24.9132 29.9248 25.3334 30.9408 25.3334 32.0001Z" fill="#6D0DF2"/>
<path d="M40.592 40.0002H23.408C23.0463 40.0002 22.6858 39.9591 22.3334 39.8775V41.3335C22.3334 41.5987 22.228 41.8531 22.0405 42.0406C21.8529 42.2281 21.5986 42.3335 21.3334 42.3335C21.0681 42.3335 20.8138 42.2281 20.6262 42.0406C20.4387 41.8531 20.3334 41.5987 20.3334 41.3335V38.8682C19.8103 38.4235 19.3903 37.8703 19.1025 37.2471C18.8147 36.6238 18.666 35.9453 18.6667 35.2588V32.0002C18.6667 31.2929 18.9476 30.6146 19.4477 30.1145C19.9478 29.6144 20.6261 29.3335 21.3334 29.3335C22.0406 29.3335 22.7189 29.6144 23.219 30.1145C23.7191 30.6146 24 31.2929 24 32.0002V33.6002C24 33.8831 24.1124 34.1544 24.3124 34.3544C24.5125 34.5544 24.7838 34.6668 25.0667 34.6668H38.9334C39.2163 34.6668 39.4876 34.5544 39.6876 34.3544C39.8876 34.1544 40 33.8831 40 33.6002V32.0002C40 31.2929 40.281 30.6146 40.7811 30.1145C41.2812 29.6144 41.9594 29.3335 42.6667 29.3335C43.3739 29.3335 44.0522 29.6144 44.5523 30.1145C45.0524 30.6146 45.3334 31.2929 45.3334 32.0002V35.2588C45.3341 35.9453 45.1854 36.6238 44.8976 37.2471C44.6098 37.8703 44.1898 38.4235 43.6667 38.8682V41.3335C43.6667 41.5987 43.5613 41.8531 43.3738 42.0406C43.1863 42.2281 42.9319 42.3335 42.6667 42.3335C42.4015 42.3335 42.1471 42.2281 41.9596 42.0406C41.772 41.8531 41.6667 41.5987 41.6667 41.3335V39.8775C41.3143 39.9591 40.9537 40.0002 40.592 40.0002Z" fill="#6D0DF2"/>
</svg>
