<svg width="64" height="64" viewBox="0 0 64 64" fill="none" xmlns="http://www.w3.org/2000/svg">
<rect width="64" height="64" rx="32" fill="#E2CFFC"/>
<path d="M35.5 32C35.5 32.6922 35.2947 33.3689 34.9101 33.9445C34.5256 34.5201 33.9789 34.9687 33.3394 35.2336C32.6999 35.4985 31.9961 35.5678 31.3172 35.4327C30.6383 35.2977 30.0146 34.9644 29.5251 34.4749C29.0356 33.9854 28.7023 33.3617 28.5673 32.6828C28.4322 32.0039 28.5015 31.3001 28.7664 30.6606C29.0313 30.0211 29.4799 29.4744 30.0555 29.0899C30.6311 28.7053 31.3078 28.5 32 28.5C32.9283 28.5 33.8185 28.8687 34.4749 29.5251C35.1313 30.1815 35.5 31.0717 35.5 32ZM22 28.5C21.3078 28.5 20.6311 28.7053 20.0555 29.0899C19.4799 29.4744 19.0313 30.0211 18.7664 30.6606C18.5015 31.3001 18.4322 32.0039 18.5673 32.6828C18.7023 33.3617 19.0356 33.9854 19.5251 34.4749C20.0146 34.9644 20.6383 35.2977 21.3172 35.4327C21.9961 35.5678 22.6999 35.4985 23.3394 35.2336C23.9789 34.9687 24.5256 34.5201 24.9101 33.9445C25.2947 33.3689 25.5 32.6922 25.5 32C25.5 31.0717 25.1313 30.1815 24.4749 29.5251C23.8185 28.8687 22.9283 28.5 22 28.5ZM42 28.5C41.3078 28.5 40.6311 28.7053 40.0555 29.0899C39.4799 29.4744 39.0313 30.0211 38.7664 30.6606C38.5015 31.3001 38.4322 32.0039 38.5673 32.6828C38.7023 33.3617 39.0356 33.9854 39.5251 34.4749C40.0146 34.9644 40.6383 35.2977 41.3172 35.4327C41.9961 35.5678 42.6999 35.4985 43.3394 35.2336C43.9789 34.9687 44.5256 34.5201 44.9101 33.9445C45.2947 33.3689 45.5 32.6922 45.5 32C45.5 31.5404 45.4095 31.0852 45.2336 30.6606C45.0577 30.236 44.7999 29.8501 44.4749 29.5251C44.1499 29.2001 43.764 28.9423 43.3394 28.7664C42.9148 28.5905 42.4596 28.5 42 28.5Z" fill="#6D0DF2"/>
</svg>
