<svg width="197" height="226" viewBox="0 0 197 226" fill="none" xmlns="http://www.w3.org/2000/svg">
<path d="M14.4156 216.498C13.8187 215.988 12.4883 214.366 13.5043 212.484C13.8825 211.792 14.6798 211.45 15.4043 211.145C16.1491 210.893 16.8512 210.529 17.4864 210.065C18.6118 209.108 18.9262 207.514 19.6734 206.233C20.5345 204.762 22.1383 203.659 23.8332 203.737C25.7741 203.823 27.3961 205.413 28.1297 207.217C28.8632 209.022 28.8905 211.036 28.9042 212.99C28.9042 214.07 28.8632 215.268 28.0704 216.015C27.2777 216.763 26.2616 216.685 25.2502 216.685L14.6388 216.357" fill="#F5F5F5"/>
<path d="M34.7045 187.316H6.79333L11.8051 217.296C11.9094 217.92 12.1887 218.502 12.6105 218.974C13.0323 219.445 13.5793 219.788 14.188 219.961C14.2193 219.972 14.2512 219.982 14.2837 219.989C14.3659 220.015 14.4496 220.036 14.5343 220.052C14.7203 220.091 14.9093 220.114 15.0992 220.121V220.148L15.2359 220.125H27.6743C28.5197 220.123 29.3367 219.82 29.9794 219.271C30.622 218.722 31.0485 217.962 31.1826 217.127L33.6064 196.474L33.7158 195.654L34.6771 187.476L34.7045 187.316ZM29.4512 206.438H26.5763L26.8633 197.741H30.1802L29.4512 206.438ZM30.4718 197.741H33.2055L32.1849 206.438H29.7155L30.4718 197.741ZM22.2707 216.084L22.0975 208.525H26.1981L25.9475 216.084H22.2707ZM17.8147 208.525H21.8196L21.9973 216.084H18.407L17.8147 208.525ZM18.1245 216.084H14.7666C14.4477 214.043 14.0331 211.391 13.582 208.525H17.5414L18.1245 216.084ZM17.6689 206.438L16.9946 197.741H21.5781L21.7786 206.438H17.6689ZM22.0702 206.438L21.8697 197.741H26.5854L26.2983 206.438H22.0702ZM21.8196 195.654L21.6328 187.599H26.9225L26.6537 195.654H21.8196ZM21.5417 195.654H16.8169L16.1927 187.599H21.3458L21.5417 195.654ZM16.5299 195.654H11.5545C11.3768 194.542 11.2128 193.485 11.0625 192.538C10.5385 189.28 10.3426 188.059 10.2378 187.599H15.9148L16.5299 195.654ZM16.6939 197.741L17.3682 206.438H13.2677C13.131 205.555 12.9897 204.662 12.8485 203.769C12.525 201.718 12.2015 199.668 11.9008 197.741H16.6939ZM12.967 206.438H10.2834L8.82539 197.741H11.6047C12.0284 200.429 12.5022 203.422 12.9761 206.438H12.967ZM13.295 208.525C13.7051 211.14 14.1106 213.719 14.4796 216.084H11.9008L10.6342 208.525H13.295ZM26.2619 216.084L26.5125 208.525H29.2462L28.5992 216.084H26.2619ZM26.9408 195.654L27.2096 187.599H31.055L30.3624 195.654H26.9408ZM9.97355 187.599C10.0829 188.177 10.5932 191.348 11.2766 195.654H8.49279L7.12594 187.599H9.97355ZM31.0504 216.084H28.8908L29.5378 208.525H31.9343L31.0504 216.084ZM33.447 195.654H30.6358L31.3284 187.599H34.3901L33.447 195.654Z" fill="#E0E0E0"/>
<path d="M124.971 166.326H53.2935V199.385H124.971V166.326Z" fill="#F5F5F5"/>
<path d="M123.267 197.822H54.9247V168.062H123.267V197.822ZM55.3803 197.367H122.812V168.508H55.3803V197.367Z" fill="#E0E0E0"/>
<path d="M142.485 166.326H124.976V199.385H142.485V166.326Z" fill="#E0E0E0"/>
<path d="M55.157 177.274H123.044C123.068 177.274 123.091 177.264 123.109 177.247C123.126 177.23 123.135 177.207 123.135 177.183C123.135 177.159 123.126 177.136 123.109 177.118C123.091 177.101 123.068 177.092 123.044 177.092H55.157C55.1329 177.092 55.1097 177.101 55.0926 177.118C55.0755 177.136 55.0659 177.159 55.0659 177.183C55.0659 177.207 55.0755 177.23 55.0926 177.247C55.1097 177.264 55.1329 177.274 55.157 177.274Z" fill="#E0E0E0"/>
<path d="M89.3238 177.183C89.5137 174.193 89.5213 171.194 89.3466 168.203C89.3466 168.179 89.337 168.156 89.3199 168.138C89.3028 168.121 89.2797 168.112 89.2555 168.112C89.2313 168.112 89.2081 168.121 89.1911 168.138C89.174 168.156 89.1644 168.179 89.1644 168.203C88.9897 171.194 88.9973 174.193 89.1871 177.183C89.1871 177.201 89.1943 177.219 89.2072 177.231C89.22 177.244 89.2374 177.252 89.2555 177.252C89.2736 177.252 89.291 177.244 89.3038 177.231C89.3166 177.219 89.3238 177.201 89.3238 177.183Z" fill="#E0E0E0"/>
<path d="M107.599 172.695C107.599 172.875 107.545 173.052 107.445 173.201C107.345 173.351 107.203 173.468 107.036 173.537C106.87 173.606 106.686 173.624 106.51 173.589C106.333 173.554 106.17 173.467 106.043 173.34C105.916 173.212 105.829 173.05 105.794 172.873C105.758 172.696 105.777 172.513 105.845 172.346C105.914 172.18 106.031 172.038 106.181 171.937C106.331 171.837 106.507 171.784 106.687 171.784C106.929 171.784 107.161 171.88 107.332 172.051C107.503 172.222 107.599 172.453 107.599 172.695Z" fill="#E0E0E0"/>
<path d="M71.9693 172.695C71.9693 172.875 71.9159 173.052 71.8158 173.201C71.7156 173.351 71.5733 173.468 71.4068 173.537C71.2403 173.606 71.0571 173.624 70.8803 173.589C70.7036 173.554 70.5412 173.467 70.4137 173.34C70.2863 173.212 70.1995 173.05 70.1644 172.873C70.1292 172.696 70.1472 172.513 70.2162 172.346C70.2852 172.18 70.402 172.038 70.5518 171.937C70.7017 171.837 70.8779 171.784 71.0581 171.784C71.2998 171.784 71.5315 171.88 71.7024 172.051C71.8733 172.222 71.9693 172.453 71.9693 172.695Z" fill="#E0E0E0"/>
<path d="M90.0483 182.942C90.0483 183.122 89.9949 183.299 89.8947 183.448C89.7946 183.598 89.6523 183.715 89.4858 183.784C89.3193 183.853 89.1361 183.871 88.9593 183.836C88.7825 183.801 88.6202 183.714 88.4927 183.587C88.3653 183.459 88.2785 183.297 88.2433 183.12C88.2082 182.943 88.2262 182.76 88.2952 182.594C88.3642 182.427 88.481 182.285 88.6308 182.185C88.7807 182.084 88.9568 182.031 89.1371 182.031C89.3787 182.031 89.6105 182.127 89.7814 182.298C89.9523 182.469 90.0483 182.701 90.0483 182.942Z" fill="#E0E0E0"/>
<path d="M61.8637 199.381L58.1732 220.134H60.2508L67.0532 199.381H61.8637Z" fill="#E0E0E0"/>
<path d="M119.905 199.381L122.989 220.171H120.912L114.715 199.381H119.905Z" fill="#E0E0E0"/>
<path d="M133.76 199.381L137.255 220.171H135.182L128.571 199.381H133.76Z" fill="#E0E0E0"/>
<path d="M89.9663 192.3C89.9663 192.481 89.9128 192.657 89.8127 192.807C89.7126 192.956 89.5703 193.073 89.4038 193.142C89.2372 193.211 89.054 193.229 88.8773 193.194C88.7005 193.159 88.5381 193.072 88.4107 192.945C88.2833 192.817 88.1965 192.655 88.1613 192.478C88.1261 192.301 88.1442 192.118 88.2132 191.952C88.2821 191.785 88.3989 191.643 88.5488 191.543C88.6986 191.443 88.8748 191.389 89.055 191.389C89.2967 191.389 89.5285 191.485 89.6994 191.656C89.8703 191.827 89.9663 192.059 89.9663 192.3Z" fill="#E0E0E0"/>
<path d="M55.157 187.526H123.044C123.068 187.526 123.091 187.516 123.109 187.499C123.126 187.482 123.135 187.459 123.135 187.434C123.135 187.41 123.126 187.387 123.109 187.37C123.091 187.353 123.068 187.343 123.044 187.343H55.157C55.1329 187.343 55.1097 187.353 55.0926 187.37C55.0755 187.387 55.0659 187.41 55.0659 187.434C55.0659 187.459 55.0755 187.482 55.0926 187.499C55.1097 187.516 55.1329 187.526 55.157 187.526Z" fill="#E0E0E0"/>
<path d="M103.335 155.094L103.312 150.684L81.6384 150.798L81.6615 155.208L103.335 155.094Z" fill="#E0E0E0"/>
<path d="M105.941 166.225L105.905 159.368L81.7489 159.494L81.7848 166.351L105.941 166.225Z" fill="#F5F5F5"/>
<path d="M101.293 166.184C101.173 165.047 101.133 163.902 101.174 162.758C101.133 161.613 101.173 160.467 101.293 159.327C101.407 160.467 101.445 161.613 101.407 162.758C101.445 163.902 101.407 165.046 101.293 166.184Z" fill="#E0E0E0"/>
<path d="M102.305 166.184C102.19 165.046 102.152 163.902 102.191 162.758C102.152 161.613 102.19 160.467 102.305 159.327C102.422 160.467 102.461 161.613 102.423 162.758C102.461 163.902 102.422 165.046 102.305 166.184Z" fill="#E0E0E0"/>
<path d="M85.4238 166.184C85.3066 165.046 85.267 163.902 85.3053 162.758C85.2669 161.613 85.3065 160.467 85.4238 159.327C85.541 160.467 85.5806 161.613 85.5422 162.758C85.5805 163.902 85.541 165.046 85.4238 166.184Z" fill="#E0E0E0"/>
<path d="M86.4397 166.184C86.3198 165.047 86.2802 163.902 86.3213 162.758C86.2801 161.613 86.3197 160.467 86.4397 159.327C86.554 160.467 86.592 161.613 86.5536 162.758C86.5919 163.902 86.5539 165.046 86.4397 166.184Z" fill="#E0E0E0"/>
<path d="M88.6541 162.868C88.6541 162.804 91.0871 162.749 94.0941 162.749C97.1012 162.749 99.5615 162.804 99.5615 162.868C99.5615 162.932 97.124 162.986 94.0941 162.986C91.0643 162.986 88.6541 162.922 88.6541 162.868Z" fill="#E0E0E0"/>
<path d="M115.011 159.332L114.988 154.922L85.1823 155.078L85.2054 159.489L115.011 159.332Z" fill="#EBEBEB"/>
<path d="M110.747 158.79C110.464 158.793 110.187 158.713 109.95 158.558C109.713 158.404 109.527 158.182 109.416 157.922C109.306 157.662 109.275 157.375 109.328 157.097C109.381 156.819 109.515 156.563 109.714 156.362C109.913 156.161 110.167 156.023 110.444 155.967C110.721 155.91 111.008 155.937 111.27 156.045C111.532 156.152 111.756 156.335 111.913 156.57C112.071 156.804 112.155 157.081 112.155 157.364C112.156 157.55 112.121 157.734 112.05 157.907C111.98 158.079 111.877 158.236 111.746 158.368C111.615 158.501 111.46 158.606 111.288 158.678C111.117 158.751 110.933 158.789 110.747 158.79Z" fill="#E0E0E0"/>
<path d="M106.874 157.806V156.922H86.9226V157.806H106.874Z" fill="#E0E0E0"/>
<path d="M133.362 103.81C152.295 84.8765 152.295 54.1792 133.362 35.2457C114.428 16.3122 83.7312 16.3122 64.7977 35.2457C45.8641 54.1792 45.8641 84.8765 64.7976 103.81C83.7312 122.743 114.428 122.743 133.362 103.81Z" fill="#E0E0E0"/>
<path d="M126.506 96.9542C141.653 81.807 141.653 57.2486 126.506 42.1015C111.359 26.9543 86.8007 26.9543 71.6535 42.1015C56.5064 57.2486 56.5064 81.807 71.6535 96.9542C86.8007 112.101 111.359 112.101 126.506 96.9542Z" fill="#FAFAFA"/>
<path d="M126.828 78.2415C131.643 62.9159 123.122 46.589 107.796 41.7745C92.4705 36.96 76.1437 45.4809 71.3292 60.8066C66.5146 76.1322 75.0356 92.4591 90.3613 97.2736C105.687 102.088 122.014 93.5672 126.828 78.2415Z" fill="#E0E0E0"/>
<path d="M116.796 77.4288C121.157 67.6476 116.763 56.183 106.981 51.822C97.2001 47.461 85.7355 51.8549 81.3745 61.6362C77.0135 71.4174 81.4074 82.882 91.1887 87.243C100.97 91.604 112.434 87.2101 116.796 77.4288Z" fill="#FAFAFA"/>
<path d="M103.473 78.1716C108.246 75.7448 110.148 69.908 107.721 65.1349C105.295 60.3617 99.4578 58.4596 94.6846 60.8864C89.9114 63.3132 88.0093 69.15 90.4361 73.9231C92.863 78.6963 98.6997 80.5984 103.473 78.1716Z" fill="#E0E0E0"/>
<path d="M100.573 70.9558L87.1141 67.4066L90.5585 63.871L62.7112 41.0035L64.2512 39.5L92.2443 62.2308L94.9461 58.5357L100.573 70.9558Z" fill="#EBEBEB"/>
<path d="M62.7112 41.0036L62.292 41.2405C61.2668 41.8199 60.1061 42.1168 58.9286 42.1008C57.7511 42.0848 56.599 41.7564 55.5899 41.1494L43.9215 34.142L51.7764 32.9072L50.9289 24.6423L61.6678 31.996C62.8479 32.804 63.7364 33.9705 64.2017 35.3229C64.667 36.6753 64.6843 38.1416 64.2512 39.5046L62.7112 41.0036Z" fill="#EBEBEB"/>
<path d="M178.392 186.359C178.445 183.532 179.537 180.824 181.459 178.75C182.384 182.569 178.392 186.359 178.392 186.359Z" fill="#EBEBEB"/>
<path d="M182.839 184.209C185.452 183.127 188.372 183.046 191.041 183.981C187.911 186.35 182.839 184.209 182.839 184.209Z" fill="#EBEBEB"/>
<path d="M183.35 181.73C182.924 179.539 183.32 177.269 184.461 175.351C185.806 178.153 183.35 181.73 183.35 181.73Z" fill="#EBEBEB"/>
<path d="M166.136 172.805C172.652 174.536 176.16 180.19 176.16 180.19C170.579 180.19 166.136 172.805 166.136 172.805Z" fill="#EBEBEB"/>
<path d="M176.534 175.47C176.197 168.463 183.044 160.53 183.044 160.53C182.01 169.233 176.534 175.47 176.534 175.47Z" fill="#EBEBEB"/>
<path d="M176.497 155.51C176.629 159.015 175.777 162.487 174.037 165.533C173.071 161.041 176.497 155.51 176.497 155.51Z" fill="#EBEBEB"/>
<path d="M173.882 169.756C168.756 169.21 165.968 164.111 165.968 164.111C172.141 165.838 173.882 169.756 173.882 169.756Z" fill="#EBEBEB"/>
<path d="M162.806 191.171C165.209 189.681 168.076 189.128 170.861 189.617C168.155 192.469 162.806 191.171 162.806 191.171Z" fill="#EBEBEB"/>
<path d="M176.083 193.476C175.429 195.134 174.211 196.507 172.643 197.353C172.861 194.988 176.083 193.476 176.083 193.476Z" fill="#EBEBEB"/>
<path d="M175.427 192.72C173.576 193.792 171.406 194.179 169.298 193.813C171.271 191.758 175.427 192.72 175.427 192.72Z" fill="#EBEBEB"/>
<path d="M178.046 202.155C178.041 202.121 178.041 202.085 178.046 202.051C178.046 201.964 178.046 201.864 178.046 201.745C178.046 201.454 178.046 201.062 178.046 200.57C178.046 200.078 178.046 199.435 178.046 198.711C178.046 197.986 178.046 197.162 177.996 196.251C177.951 194.428 177.823 192.264 177.636 189.872C177.449 187.48 177.135 184.837 176.725 182.085C175.891 176.591 174.793 171.656 173.882 168.121C173.426 166.353 173.057 164.931 172.784 163.947C172.652 163.469 172.551 163.091 172.474 162.813L172.401 162.517C172.397 162.482 172.397 162.447 172.401 162.412C172.42 162.443 172.434 162.477 172.442 162.512L172.538 162.799L172.884 163.92C173.189 164.895 173.59 166.317 174.06 168.08C175.272 172.683 176.23 177.35 176.93 182.058C177.331 184.792 177.618 187.453 177.814 189.858C178.01 192.264 178.101 194.437 178.124 196.264C178.156 197.175 178.146 198 178.124 198.725C178.101 199.449 178.124 200.091 178.096 200.584C178.069 201.076 178.064 201.472 178.055 201.759C178.055 201.882 178.055 201.982 178.055 202.064L178.046 202.155Z" fill="#E0E0E0"/>
<path d="M168.642 187.321C168.679 187.266 170.747 188.624 173.267 190.351C175.786 192.077 177.796 193.517 177.759 193.572C177.723 193.626 175.654 192.269 173.135 190.542C170.615 188.815 168.606 187.371 168.642 187.321Z" fill="#E0E0E0"/>
<path d="M177.759 188.068C177.851 187.938 177.958 187.821 178.078 187.717L178.989 186.829L182.069 183.94C183.249 182.833 184.316 181.831 185.149 181.056L186.061 180.177C186.17 180.063 186.293 179.962 186.425 179.876C186.341 180.01 186.24 180.133 186.124 180.24C185.924 180.468 185.619 180.783 185.241 181.152C184.484 181.926 183.418 182.974 182.206 184.09C180.994 185.207 179.892 186.218 179.081 186.934C178.675 187.289 178.342 187.571 178.106 187.767C178.002 187.881 177.886 187.982 177.759 188.068Z" fill="#E0E0E0"/>
<path d="M162.063 183.999C162.063 183.999 167.357 183.899 169.599 188.063C168.113 188.021 166.658 187.631 165.349 186.925C164.041 186.219 162.915 185.217 162.063 183.999Z" fill="#EBEBEB"/>
<path d="M169.294 181.872C169.294 181.872 173.604 184.947 172.939 189.617C171.77 188.699 170.831 187.521 170.198 186.176C169.566 184.832 169.256 183.357 169.294 181.872Z" fill="#EBEBEB"/>
<path d="M192.002 174.313C192.002 174.313 190.302 180.236 184.894 181.306C185.452 179.668 186.386 178.182 187.62 176.968C188.854 175.753 190.354 174.844 192.002 174.313Z" fill="#EBEBEB"/>
<path d="M166.943 152.261C166.943 152.261 173.7 156.667 172.971 163.833C171.133 162.508 169.631 160.771 168.584 158.762C167.537 156.753 166.975 154.526 166.943 152.261Z" fill="#EBEBEB"/>
<path d="M189.427 191.458C189.288 191.59 189.136 191.708 188.972 191.809C188.68 192.018 188.266 192.333 187.76 192.72C186.453 193.765 185.234 194.915 184.115 196.16C183 197.411 181.988 198.75 181.09 200.165C180.748 200.707 180.479 201.153 180.301 201.468C180.216 201.63 180.113 201.782 179.996 201.923C180.053 201.744 180.128 201.572 180.219 201.408C180.374 201.08 180.625 200.62 180.953 200.042C182.682 197.129 184.967 194.586 187.678 192.556C188.197 192.169 188.63 191.872 188.935 191.686C189.091 191.593 189.256 191.517 189.427 191.458Z" fill="#E0E0E0"/>
<path d="M183.546 195.859C183.056 193.074 183.609 190.207 185.099 187.803C185.824 192.824 183.546 195.859 183.546 195.859Z" fill="#EBEBEB"/>
<path d="M188.093 193.38C189.88 192.364 191.978 192.04 193.988 192.469C190.74 194.196 188.093 193.38 188.093 193.38Z" fill="#EBEBEB"/>
<path d="M168.196 202.702L170.729 219.36H185.455L188.872 202.944L168.196 202.702Z" fill="#EBEBEB"/>
<path d="M186.812 213.377C186.812 213.427 183.04 213.464 178.388 213.464C173.736 213.464 169.959 213.427 169.959 213.377C169.959 213.327 173.732 213.291 178.388 213.291C183.044 213.291 186.812 213.332 186.812 213.377Z" fill="#FAFAFA"/>
<path d="M186.872 212.585C186.872 212.63 183.072 212.671 178.388 212.671C173.704 212.671 169.9 212.63 169.9 212.585C169.9 212.539 173.7 212.498 178.388 212.498C183.076 212.498 186.872 212.512 186.872 212.585Z" fill="#FAFAFA"/>
<path d="M186.84 211.637C186.84 211.682 183.044 211.723 178.356 211.723C173.668 211.723 169.873 211.682 169.873 211.637C169.873 211.591 173.672 211.55 178.356 211.55C183.04 211.55 186.84 211.587 186.84 211.637Z" fill="#FAFAFA"/>
<path d="M172.419 218.412C172.215 217.724 172.063 217.022 171.964 216.311C171.816 215.612 171.721 214.902 171.681 214.188C172.044 215.573 172.289 216.986 172.415 218.412H172.419Z" fill="#FAFAFA"/>
<path d="M173.426 218.234C173.322 217.557 173.261 216.874 173.244 216.189C173.167 215.507 173.135 214.82 173.148 214.134C173.414 215.483 173.507 216.861 173.426 218.234Z" fill="#FAFAFA"/>
<path d="M175.249 218.234C175.05 217.549 174.922 216.845 174.866 216.134C174.753 215.431 174.715 214.717 174.752 214.006C174.888 214.703 174.982 215.407 175.035 216.116C175.145 216.817 175.216 217.525 175.249 218.234Z" fill="#FAFAFA"/>
<path d="M176.529 218.321C176.39 217.619 176.321 216.904 176.324 216.189C176.272 215.474 176.295 214.757 176.392 214.047C176.468 214.757 176.503 215.47 176.497 216.184C176.549 216.895 176.56 217.609 176.529 218.321Z" fill="#FAFAFA"/>
<path d="M178.798 218.234C178.69 217.565 178.638 216.889 178.643 216.211C178.585 215.535 178.585 214.855 178.643 214.179C178.751 214.85 178.803 215.528 178.798 216.207C178.856 216.881 178.856 217.56 178.798 218.234Z" fill="#FAFAFA"/>
<path d="M180.457 218.321C180.373 217.627 180.35 216.927 180.388 216.229C180.366 215.531 180.4 214.832 180.488 214.138C180.572 214.832 180.595 215.532 180.557 216.229C180.579 216.928 180.545 217.627 180.457 218.321Z" fill="#FAFAFA"/>
<path d="M182.01 218.097C181.993 217.366 182.034 216.635 182.133 215.91C182.175 215.181 182.275 214.455 182.434 213.742C182.448 214.473 182.405 215.204 182.306 215.929C182.262 216.658 182.163 217.383 182.01 218.097Z" fill="#FAFAFA"/>
<path d="M184.015 217.879C184.014 217.251 184.097 216.626 184.261 216.02C184.365 215.4 184.549 214.797 184.808 214.225C184.716 214.839 184.589 215.447 184.43 216.047C184.325 216.665 184.187 217.276 184.015 217.879Z" fill="#FAFAFA"/>
<path d="M166.506 199.408V202.524C166.506 202.849 166.635 203.161 166.865 203.391C167.094 203.621 167.406 203.75 167.731 203.75H189.054C189.38 203.75 189.692 203.621 189.922 203.391C190.153 203.162 190.283 202.85 190.284 202.524V199.408H166.506Z" fill="#EBEBEB"/>
<path d="M168.355 203.75L168.528 204.743L188.207 206.147L188.703 203.75H168.355Z" fill="#E0E0E0"/>
<path d="M189.213 219.788C189.213 219.856 148.486 219.906 98.2539 219.906C48.0221 219.906 7.28528 219.874 7.28528 219.788C7.28528 219.701 48.0038 219.669 98.2539 219.669C148.504 219.669 189.213 219.724 189.213 219.788Z" fill="#160330"/>
<path d="M0 84.8932C0 84.8932 4.67008 104.029 25.5738 99.637C25.5738 99.637 19.5187 80.2687 0 84.8932Z" fill="#E2CFFC"/>
<path d="M10.1011 113.861C10.1011 113.861 19.6964 128.168 35.5519 118.272C35.5519 118.272 24.7401 104.184 10.1011 113.861Z" fill="#E2CFFC"/>
<path d="M25.3916 135.69C25.3916 135.69 39.3927 147.596 52.8016 132.838C52.8016 132.852 37.6158 121.507 25.3916 135.69Z" fill="#E2CFFC"/>
<path d="M39.862 89.7639C39.862 89.7639 24.3346 97.2269 31.8705 114.331C32.9776 113.716 47.2202 105.305 39.862 89.7639Z" fill="#E2CFFC"/>
<path d="M43.2336 110.385C43.2336 110.385 35.4881 120.842 47.0289 129.822C47.7488 128.701 54.5101 118.728 43.2336 110.385Z" fill="#E2CFFC"/>
<path d="M7.31717 62.8777C7.31717 62.8777 5.53571 78.3687 22.2797 80.8655C22.2797 80.8655 23.0952 64.8004 7.31717 62.8777Z" fill="#E2CFFC"/>
<path d="M31.3328 47.1953C31.3328 47.1953 17.7873 52.8495 23.6693 68.7232C23.6693 68.7232 37.2422 61.9528 31.3328 47.1953Z" fill="#E2CFFC"/>
<path d="M39.5066 69.8447C39.5066 69.8447 21.5735 71.8904 23.1499 91.3909C23.1499 91.3909 41.4658 88.1287 39.5066 69.8447Z" fill="#E2CFFC"/>
<path d="M65.0303 137.978L64.8025 137.909L64.1282 137.732C63.5405 137.577 62.6611 137.367 61.5585 137.007C58.4316 136.042 55.4081 134.77 52.5327 133.207C48.2745 130.885 44.3432 128.007 40.8416 124.651C38.7643 122.664 36.8307 120.533 35.0552 118.272L33.6884 116.45C33.4606 116.149 33.2328 115.844 33.0095 115.538C32.7863 115.233 32.5858 114.901 32.3762 114.582L31.105 112.632L29.9387 110.59L29.3555 109.561L28.8361 108.508C28.4943 107.811 28.1435 107.119 27.8109 106.422L26.8997 104.317C26.7539 103.966 26.599 103.62 26.4441 103.269C26.2892 102.918 26.1889 102.567 26.0659 102.216L25.3187 100.129C25.1091 99.4278 24.9041 98.7353 24.7036 98.0473C24.6034 97.7011 24.4986 97.3593 24.3983 97.0222C24.2981 96.685 24.2298 96.3342 24.1478 95.997C23.9883 95.3136 23.8288 94.6302 23.6921 93.9695C22.6827 89.2307 22.2483 84.3875 22.3982 79.5447C22.504 76.274 22.8681 73.0169 23.4871 69.8036C23.7286 68.6691 23.9427 67.7943 24.0794 67.202C24.1432 66.9059 24.1933 66.6826 24.2298 66.5231C24.2662 66.3637 24.2753 66.2908 24.2753 66.2908C24.2753 66.2908 24.248 66.3637 24.207 66.5186C24.166 66.6735 24.1113 66.8967 24.0384 67.1883C23.8926 67.7852 23.6648 68.6554 23.4096 69.7854C21.7691 77.789 21.8095 86.0461 23.5281 94.0333C23.683 94.7031 23.8425 95.3774 23.9837 96.0654C24.0703 96.4071 24.1341 96.7534 24.2343 97.0951C24.3346 97.4368 24.4348 97.7785 24.5396 98.1248C24.7401 98.8128 24.9451 99.4916 25.1547 100.212L25.9019 102.307C26.0249 102.658 26.1525 103.014 26.28 103.364C26.4076 103.715 26.5716 104.061 26.7357 104.412L27.6469 106.531C27.9749 107.228 28.3258 107.921 28.672 108.622C28.8452 108.978 29.0183 109.328 29.196 109.679C29.3737 110.03 29.5833 110.367 29.7792 110.714L30.9501 112.764L32.2259 114.718C32.44 115.037 32.6405 115.365 32.8592 115.68L33.5426 116.591L34.9094 118.413C36.6903 120.675 38.63 122.806 40.714 124.792C44.2348 128.158 48.1896 131.039 52.4735 133.358C55.3623 134.912 58.4018 136.168 61.5449 137.107C62.652 137.458 63.5359 137.65 64.1282 137.795L64.8071 137.95L65.0303 137.978Z" fill="#160330"/>
<path d="M44.9101 118.814C44.8906 118.965 44.8906 119.118 44.9101 119.27C44.9101 119.552 44.9739 119.958 45.0377 120.454C45.1562 121.457 45.3658 122.833 45.6574 124.336C45.9489 125.84 46.2815 127.197 46.5412 128.168C46.6734 128.655 46.7873 129.047 46.8739 129.316C46.9055 129.459 46.956 129.597 47.0242 129.726C47.0193 129.572 46.9948 129.419 46.9513 129.27L46.6825 128.113C46.4547 127.134 46.154 125.78 45.8578 124.277C45.5617 122.773 45.3384 121.406 45.179 120.413C45.1061 119.958 45.0423 119.557 44.9876 119.238C44.9783 119.094 44.9523 118.952 44.9101 118.814Z" fill="#160330"/>
<path d="M41.0967 134.341C41.2497 134.348 41.4029 134.334 41.5523 134.3L42.746 134.127C43.7484 133.977 45.138 133.781 46.6734 133.603C48.2089 133.426 49.6076 133.294 50.6191 133.207L51.8174 133.102C51.9713 133.1 52.1243 133.079 52.273 133.038C52.1216 133.021 51.9687 133.021 51.8174 133.038C51.5303 133.038 51.1203 133.038 50.6145 133.079C49.5985 133.13 48.1952 133.239 46.6552 133.417C45.1152 133.594 43.7256 133.818 42.7232 134.004C42.2266 134.095 41.812 134.177 41.5432 134.241C41.3908 134.256 41.2409 134.29 41.0967 134.341Z" fill="#160330"/>
<path d="M22.2251 115.365C22.3925 115.422 22.5649 115.463 22.7399 115.488L24.1569 115.77C25.3552 116.003 27.0091 116.349 28.8179 116.787C30.6267 117.224 32.2532 117.675 33.4242 118.012L34.791 118.413C34.9592 118.474 35.1333 118.516 35.3104 118.541C35.154 118.457 34.9891 118.389 34.8184 118.34C34.4949 118.222 34.0256 118.062 33.4515 117.885C32.2897 117.511 30.6677 117.037 28.8498 116.6C27.0319 116.162 25.378 115.834 24.1706 115.634C23.5692 115.534 23.0771 115.461 22.7399 115.42C22.5708 115.383 22.3982 115.365 22.2251 115.365Z" fill="#160330"/>
<path d="M35.93 100.703C35.8072 100.843 35.7003 100.996 35.6111 101.159C35.4152 101.469 35.1555 101.933 34.8502 102.526C33.275 105.589 32.3139 108.93 32.0208 112.362C31.9662 113.018 31.9434 113.547 31.9434 113.916C31.9269 114.107 31.9269 114.299 31.9434 114.49C31.9815 114.303 32.0013 114.112 32.0026 113.921C32.0026 113.556 32.0755 113.009 32.1439 112.376C32.5158 108.977 33.4682 105.667 34.9596 102.589C35.2421 101.997 35.4881 101.523 35.6612 101.223C35.7678 101.059 35.8578 100.885 35.93 100.703Z" fill="#160330"/>
<path d="M15.131 91.782C15.2573 91.893 15.3947 91.9907 15.541 92.0736L16.6938 92.8208C17.6597 93.4632 18.9718 94.3836 20.3387 95.4953C21.7055 96.607 22.8856 97.6959 23.7103 98.5069L24.6807 99.4728C24.7924 99.6014 24.9176 99.7175 25.0543 99.8191C24.9639 99.6761 24.8585 99.5433 24.74 99.4227C24.5304 99.1721 24.216 98.8258 23.8287 98.4067C22.7789 97.3145 21.662 96.2889 20.4845 95.3358C19.3066 94.3828 18.071 93.5033 16.7849 92.7023C16.2928 92.3925 15.8736 92.1556 15.6003 92.0052C15.452 91.9147 15.2947 91.8399 15.131 91.782Z" fill="#160330"/>
<path d="M34.7136 77.6216C34.7136 77.6216 34.6544 77.658 34.5633 77.7355L34.1715 78.0863C33.8297 78.3961 33.3468 78.8563 32.759 79.4304C31.5881 80.5831 30.0253 82.2279 28.3897 84.1369C26.754 86.046 25.3871 87.8548 24.4395 89.1988C23.9838 89.8686 23.5875 90.4153 23.3369 90.8026L23.0498 91.2582C23.0129 91.3066 22.9837 91.3604 22.9633 91.4177C22.9633 91.4177 23.0134 91.3767 23.0863 91.281L23.4006 90.8573L24.5534 89.29C25.5329 87.9732 26.9226 86.1826 28.5446 84.2782C30.1666 82.3737 31.7339 80.7152 32.8638 79.5397L34.2307 78.1729L34.5952 77.7947C34.6435 77.7436 34.6835 77.6852 34.7136 77.6216Z" fill="#160330"/>
<path d="M13.1128 67.9214C13.2265 68.0929 13.3545 68.2544 13.4955 68.4043L14.5844 69.6892C15.4957 70.7781 16.7213 72.3135 17.9833 74.0722C19.2454 75.8309 20.2979 77.4939 21.036 78.7104C21.3868 79.2936 21.6738 79.7811 21.8971 80.1547C21.9944 80.3362 22.1056 80.5098 22.2297 80.6741C22.1588 80.4805 22.0719 80.293 21.97 80.1137C21.7878 79.7583 21.5144 79.2526 21.159 78.6375C20.4528 77.3982 19.414 75.7261 18.1474 73.9538C16.8808 72.1814 15.6369 70.6642 14.6938 69.5935C14.2382 69.0604 13.8327 68.6367 13.5547 68.3497C13.4224 68.1922 13.2743 68.0487 13.1128 67.9214Z" fill="#160330"/>
<path d="M29.3281 53.2007C29.2171 53.3817 29.1226 53.5723 29.0456 53.7702C28.877 54.1393 28.6401 54.6814 28.3531 55.3512C27.7836 56.6953 27.0318 58.5405 26.2618 60.65C25.4918 62.7595 24.8403 64.6504 24.3983 66.04C24.1796 66.7325 24.0065 67.2975 23.8926 67.6893C23.8227 67.8893 23.7708 68.0952 23.7377 68.3044C23.8377 68.1102 23.92 67.9074 23.9837 67.6984C24.1295 67.2793 24.3209 66.7325 24.5487 66.0719C25.0271 64.705 25.6923 62.796 26.4668 60.7093C27.2414 58.6225 27.9521 56.7636 28.4898 55.3968C28.7449 54.7452 28.9454 54.203 29.1185 53.7884C29.2041 53.5985 29.2742 53.4019 29.3281 53.2007Z" fill="#160330"/>
<path d="M197 82.1733C197 82.1733 192.33 101.309 171.426 96.9217C171.426 96.9217 177.486 77.5488 197 82.1733Z" fill="#E2CFFC"/>
<path d="M186.899 111.142C186.899 111.142 177.304 125.453 161.448 115.557C161.448 115.538 172.26 101.469 186.899 111.142Z" fill="#E2CFFC"/>
<path d="M171.604 132.97C171.604 132.97 157.607 144.88 144.198 130.118C144.198 130.118 159.384 118.791 171.604 132.97Z" fill="#E2CFFC"/>
<path d="M157.138 87.0483C157.138 87.0483 172.666 94.5114 165.13 111.611C164.027 110.982 149.803 102.589 157.138 87.0483Z" fill="#E2CFFC"/>
<path d="M153.767 107.665C153.767 107.665 161.512 118.121 149.971 127.106C149.251 125.985 142.49 115.994 153.767 107.665Z" fill="#E2CFFC"/>
<path d="M189.687 60.1621C189.687 60.1621 191.469 75.6531 174.72 78.1499C174.72 78.1499 173.905 62.0848 189.687 60.1621Z" fill="#E2CFFC"/>
<path d="M165.681 44.4617C165.681 44.4617 179.226 50.1204 173.344 65.9942C173.331 66.0078 159.758 59.2328 165.681 44.4617Z" fill="#E2CFFC"/>
<path d="M157.48 67.1292C157.48 67.1292 175.413 69.1749 173.836 88.6935C173.85 88.6935 155.534 85.4131 157.48 67.1292Z" fill="#E2CFFC"/>
<path d="M131.965 135.258L132.193 135.194L132.863 135.012C133.455 134.857 134.33 134.652 135.432 134.292C138.559 133.325 141.582 132.052 144.458 130.492C148.723 128.163 152.66 125.28 156.168 121.917C158.238 119.938 160.169 117.817 161.945 115.57L163.289 113.748L163.972 112.837C164.191 112.522 164.391 112.199 164.601 111.875C165.025 111.233 165.444 110.581 165.872 109.93L167.039 107.884C167.234 107.542 167.43 107.201 167.622 106.859L168.141 105.806C168.487 105.105 168.838 104.44 169.166 103.72L170.078 101.61C170.223 101.259 170.378 100.918 170.533 100.567C170.688 100.216 170.788 99.8607 170.911 99.5098L171.659 97.4277C171.868 96.726 172.073 96.0289 172.274 95.3409C172.378 94.9992 172.479 94.6575 172.579 94.3158C172.679 93.9741 172.747 93.6324 172.829 93.2907C172.993 92.6072 173.153 91.9329 173.308 91.2677C174.319 86.5183 174.755 81.6645 174.606 76.811C174.499 73.5387 174.134 70.2799 173.513 67.0653C173.271 65.9354 173.057 65.0606 172.925 64.4637C172.857 64.1721 172.807 63.9443 172.77 63.7849C172.734 63.6254 172.729 63.5525 172.729 63.5525L172.793 63.7803L172.962 64.4546C173.107 65.0469 173.335 65.9217 173.595 67.0516C174.242 70.2683 174.627 73.5321 174.748 76.811C174.908 81.6782 174.473 86.5468 173.454 91.3087L172.998 93.3362C172.916 93.6779 172.848 94.0288 172.747 94.3659C172.647 94.7031 172.547 95.0539 172.442 95.3956C172.242 96.0881 172.037 96.7852 171.827 97.4869C171.581 98.1794 171.335 98.8537 171.08 99.5782C170.957 99.9336 170.829 100.284 170.702 100.64C170.574 100.995 170.41 101.337 170.246 101.688L169.335 103.806C169.002 104.503 168.651 105.173 168.305 105.898L167.786 106.955L167.198 107.984L166.027 110.035L164.751 111.989C164.542 112.313 164.337 112.641 164.118 112.951L163.435 113.862L162.068 115.684C160.285 117.946 158.344 120.077 156.259 122.063C152.74 125.433 148.785 128.315 144.499 130.633C141.611 132.187 138.571 133.442 135.428 134.378C134.321 134.729 133.437 134.925 132.844 135.066L132.17 135.226C132.102 135.239 132.034 135.25 131.965 135.258Z" fill="#160330"/>
<path d="M152.09 116.098C152.109 116.25 152.109 116.403 152.09 116.554C152.067 116.832 152.026 117.237 151.967 117.739C151.844 118.736 151.639 120.112 151.342 121.62C151.046 123.129 150.723 124.482 150.459 125.452C150.326 125.94 150.213 126.327 150.126 126.596C150.092 126.74 150.042 126.879 149.976 127.01C149.983 126.863 150.009 126.718 150.053 126.578C150.126 126.259 150.213 125.871 150.317 125.416C150.545 124.441 150.85 123.083 151.142 121.579C151.434 120.076 151.666 118.709 151.821 117.716C151.898 117.26 151.962 116.864 152.012 116.545C152.019 116.393 152.045 116.243 152.09 116.098Z" fill="#160330"/>
<path d="M155.908 131.626C155.755 131.632 155.602 131.619 155.452 131.585L154.263 131.412C153.256 131.262 151.871 131.066 150.331 130.884C148.791 130.701 147.397 130.574 146.385 130.487L145.192 130.382C145.037 130.382 144.884 130.361 144.736 130.319C144.887 130.301 145.04 130.301 145.192 130.319C145.474 130.319 145.884 130.319 146.394 130.36C147.406 130.41 148.809 130.515 150.349 130.697C151.889 130.879 153.279 131.098 154.281 131.285C154.778 131.376 155.192 131.458 155.461 131.521C155.614 131.539 155.763 131.574 155.908 131.626Z" fill="#160330"/>
<path d="M174.793 112.645C174.625 112.704 174.451 112.747 174.274 112.772L172.857 113.05C171.659 113.287 170.009 113.633 168.196 114.071C166.383 114.508 164.761 114.959 163.59 115.296L162.2 115.697C162.031 115.756 161.857 115.797 161.681 115.82C161.841 115.742 162.007 115.675 162.177 115.62C162.496 115.502 162.965 115.347 163.544 115.164C164.706 114.791 166.332 114.317 168.146 113.875C169.959 113.433 171.618 113.114 172.825 112.914C173.426 112.813 173.918 112.74 174.256 112.695C174.433 112.661 174.613 112.645 174.793 112.645Z" fill="#160330"/>
<path d="M161.07 97.9834C161.192 98.1321 161.299 98.2923 161.389 98.4618C161.589 98.7716 161.845 99.2363 162.154 99.8287C163.726 102.893 164.685 106.234 164.979 109.665C165.034 110.322 165.061 110.855 165.057 111.224C165.076 111.413 165.076 111.604 165.057 111.793C165.021 111.607 165.001 111.418 164.997 111.228C164.997 110.859 164.929 110.317 164.856 109.679C164.482 106.277 163.528 102.964 162.036 99.8833C161.753 99.2956 161.512 98.8217 161.334 98.5165C161.23 98.3473 161.142 98.1688 161.07 97.9834Z" fill="#160330"/>
<path d="M181.873 89.0623C181.746 89.1746 181.607 89.2724 181.459 89.3539L180.311 90.1056C179.345 90.7435 178.033 91.6638 176.666 92.7755C175.299 93.8872 174.119 94.9762 173.294 95.7872L172.324 96.7576C172.212 96.8833 172.088 96.9977 171.955 97.0994C172.042 96.9556 172.146 96.8226 172.264 96.703C172.474 96.4569 172.788 96.1061 173.176 95.6869C174.227 94.5961 175.344 93.5705 176.52 92.6161C177.696 91.6622 178.93 90.7826 180.215 89.9826C180.707 89.6773 181.126 89.4404 181.4 89.2855C181.55 89.1957 181.709 89.1209 181.873 89.0623Z" fill="#160330"/>
<path d="M162.291 74.906C162.345 74.936 162.395 74.9744 162.437 75.0199L162.833 75.3707C163.175 75.6806 163.653 76.1362 164.241 76.7148C165.412 77.863 166.975 79.5077 168.61 81.4168C170.246 83.3258 171.613 85.1392 172.565 86.4787C173.021 87.1485 173.413 87.6998 173.663 88.0825L173.95 88.5381C173.987 88.5883 174.016 88.6435 174.037 88.7021C173.991 88.6599 173.949 88.6125 173.914 88.5609L173.599 88.1371L172.447 86.5744C171.467 85.2576 170.078 83.4671 168.456 81.5626C166.834 79.6581 165.266 78.0042 164.136 76.8287L162.769 75.4619L162.4 75.0791C162.355 75.0276 162.318 74.9692 162.291 74.906Z" fill="#160330"/>
<path d="M183.906 65.2014C183.794 65.374 183.665 65.5357 183.523 65.6844L182.434 66.9692C181.523 68.0627 180.297 69.5936 179.035 71.3568C177.773 73.12 176.721 74.7785 175.987 75.9904L175.121 77.4347C175.022 77.6163 174.911 77.7913 174.789 77.9587C174.859 77.7641 174.948 77.5765 175.053 77.3983C175.231 77.0429 175.509 76.5372 175.86 75.9175C176.566 74.6828 177.605 73.0061 178.871 71.2384C180.138 69.4706 181.382 67.9442 182.325 66.8781C182.78 66.345 183.186 65.9167 183.464 65.6343C183.6 65.4792 183.748 65.3345 183.906 65.2014Z" fill="#160330"/>
<path d="M167.672 50.4851C167.784 50.6641 167.878 50.8532 167.954 51.0501C168.128 51.4237 168.365 51.9613 168.647 52.6356C169.217 53.9751 169.968 55.8249 170.738 57.9345C171.508 60.044 172.16 61.9302 172.602 63.3199C172.825 64.017 172.994 64.5774 173.108 64.9738C173.176 65.1725 173.228 65.3767 173.262 65.5843C173.169 65.3957 173.093 65.199 173.035 64.9965L172.465 63.3654C171.987 61.9986 171.321 60.0895 170.547 58.0028C169.772 55.9161 169.048 54.0435 168.515 52.6903L167.882 51.082C167.799 50.8877 167.729 50.6884 167.672 50.4851Z" fill="#160330"/>
<path d="M122.311 163.469C122.311 163.469 124.671 172.896 122.311 176.718C122.215 176.878 122.11 177.037 122.001 177.174C120.466 179.381 118.25 181.024 115.693 181.853C113.136 182.681 110.378 182.65 107.84 181.762L81.2914 172.65L83.3189 165.524L100.364 167.629L118.552 162.676L122.311 163.469Z" fill="#FFBE9D"/>
<path d="M110.474 148.912C110.474 148.912 118.976 173.684 118.552 179.625C118.128 185.567 101.694 216.694 101.694 216.694L94.4952 213.387C94.4952 213.387 97.2563 204.652 99.097 197.012C100.008 193.153 100.391 188.464 101.102 186.569C103.261 180.906 105.785 177.958 105.785 177.958L94.1991 154.143L110.474 148.912Z" fill="#FFBE9D"/>
<path d="M87.178 132.396C87.178 132.396 84.6675 139.303 86.4034 145.828C88.1393 152.352 104.478 179.088 104.478 179.088L123.386 168.153C123.386 168.153 122.657 144.324 116.069 131.029L87.178 132.396Z" fill="#160330"/>
<path d="M118.401 170.987C118.401 170.987 118.447 171.055 118.511 171.196C118.575 171.337 118.666 171.547 118.761 171.825C119.035 172.612 119.217 173.429 119.304 174.258C119.425 175.49 119.393 176.733 119.208 177.958C119.103 178.65 118.98 179.365 118.793 180.103C118.606 180.842 118.36 181.589 118.092 182.341C117.012 185.366 115.855 188.022 115.012 189.945C114.588 190.906 114.237 191.676 113.986 192.223C113.868 192.464 113.772 192.679 113.695 192.829C113.664 192.902 113.624 192.97 113.576 193.034C113.591 192.957 113.615 192.882 113.649 192.811L113.9 192.186L114.857 189.908C115.659 187.967 116.793 185.302 117.868 182.29C118.133 181.539 118.374 180.796 118.565 180.076C118.757 179.356 118.884 178.636 118.994 177.953C119.188 176.748 119.238 175.525 119.144 174.308C119.078 173.486 118.925 172.674 118.688 171.884C118.506 171.292 118.379 170.996 118.401 170.987Z" fill="#EB996E"/>
<path d="M99.7622 193.759C99.7574 193.545 99.7711 193.332 99.8032 193.121C99.8396 192.706 99.9125 192.114 100.013 191.385C100.26 189.471 100.695 187.586 101.311 185.758C101.983 183.947 102.856 182.217 103.913 180.6C104.309 179.981 104.642 179.48 104.879 179.142C104.991 178.96 105.121 178.789 105.266 178.632C105.18 178.828 105.076 179.015 104.956 179.192C104.719 179.584 104.419 180.104 104.045 180.687C103.038 182.316 102.194 184.041 101.525 185.835C100.913 187.651 100.456 189.515 100.159 191.408C100.04 192.1 99.9444 192.679 99.8715 193.13C99.8582 193.343 99.8215 193.554 99.7622 193.759Z" fill="#EB996E"/>
<path d="M118.297 165.802C118.258 165.733 118.229 165.659 118.21 165.583L118.005 164.95C117.827 164.362 117.581 163.583 117.285 162.612C116.679 160.635 115.818 157.915 114.797 154.935C113.777 151.956 112.788 149.277 112.064 147.34L111.198 145.062C111.107 144.811 111.034 144.606 110.97 144.438C110.938 144.367 110.917 144.292 110.906 144.215C110.953 144.277 110.99 144.346 111.016 144.42L111.285 145.03C111.517 145.559 111.836 146.333 112.219 147.308C112.989 149.226 114 151.901 115.025 154.885C116.05 157.869 116.884 160.603 117.454 162.59C117.736 163.583 117.959 164.412 118.101 164.954C118.164 165.209 118.219 165.41 118.26 165.597C118.282 165.663 118.294 165.732 118.297 165.802Z" fill="#E2CFFC"/>
<path d="M107.17 147.317C107.143 147.349 106.578 146.884 105.571 146.278C104.983 145.926 104.375 145.61 103.749 145.331C102.978 144.997 102.184 144.717 101.375 144.492C100.561 144.281 99.7325 144.129 98.8965 144.037C98.2142 143.961 97.5279 143.929 96.8416 143.941C95.6661 143.964 94.9462 144.082 94.9371 144.037C95.0991 143.979 95.2673 143.941 95.4383 143.923C95.9008 143.842 96.368 143.792 96.8371 143.772C97.5313 143.737 98.2272 143.752 98.9192 143.818C99.7684 143.902 100.609 144.055 101.434 144.274C102.257 144.501 103.061 144.79 103.84 145.139C104.47 145.431 105.079 145.768 105.662 146.146C106.058 146.397 106.437 146.674 106.797 146.975C106.935 147.074 107.06 147.189 107.17 147.317Z" fill="#E2CFFC"/>
<path d="M114.128 120.55C114.264 117.424 117.955 113.497 117.003 104.63C116 95.3313 114.588 87.1348 114.588 87.1348L107.576 88.8433L106.373 87.1348L94.7959 89.8685L92.9734 91.5861L84.9409 94.8712C84.4658 95.0665 84.0349 95.3556 83.674 95.7212C83.3131 96.0867 83.0296 96.5213 82.8405 96.9989L77.2455 111.228L65.0851 103.049L60.4788 109.296C60.4788 109.296 75.7875 123.343 79.7878 122.937C83.3735 122.573 86.3761 117.133 87.8659 113.875L90.1714 123.484C90.1714 123.484 86.5264 129.908 85.7929 140.797L109.84 141.709C110.582 141.738 111.321 141.594 111.998 141.289C112.674 140.983 113.271 140.525 113.74 139.95L118.297 134.387C118.297 134.387 113.991 123.657 114.128 120.55Z" fill="#A76EF7"/>
<path d="M111.312 88.8523L114.415 87.4308L126.602 76.8103L130.985 58.2849L138.731 61.5244C138.731 61.5244 137.988 75.4435 137.018 80.2047C136.047 84.9659 116.474 100.502 116.474 100.502L111.312 88.8523Z" fill="#A76EF7"/>
<path d="M115.563 91.6912C115.666 92.2137 115.741 92.7415 115.786 93.2722C115.918 94.3155 116.087 95.6368 116.269 97.0948C116.451 98.5528 116.606 99.9469 116.688 100.927C116.734 101.419 116.761 101.838 116.775 102.093C116.796 102.236 116.796 102.382 116.775 102.526C116.661 102.004 116.58 101.476 116.533 100.945C116.401 99.9014 116.233 98.5847 116.046 97.1267C115.859 95.6687 115.709 94.2745 115.631 93.2904C115.59 92.7983 115.567 92.4019 115.558 92.124C115.537 91.9804 115.538 91.8343 115.563 91.6912Z" fill="#160330"/>
<path d="M107.243 116.572C107.161 116.501 107.085 116.424 107.015 116.34L106.4 115.638C105.854 115.005 105.088 114.121 104.159 113.037L96.8324 104.38L92.8048 99.5913L92.7547 99.532L92.7957 99.4682L93.6932 97.9055L93.8026 98.0558C93.2741 98.1652 92.7774 98.1925 92.3218 98.2882L92.1897 98.3201V98.1834C92.4357 96.2516 92.6453 94.6524 92.782 93.5088C92.8549 92.9711 92.9141 92.5429 92.9597 92.2239C92.9721 92.0697 92.9996 91.9171 93.0417 91.7683C93.0448 91.9207 93.0357 92.073 93.0144 92.2239C92.9825 92.5474 92.9415 92.9757 92.8868 93.5179C92.7638 94.6615 92.5906 96.2516 92.3811 98.2016L92.2626 98.1014C92.7182 97.992 93.2422 97.9602 93.7434 97.8508L93.9666 97.8007L93.8573 98.0012C93.5793 98.5023 93.2877 99.0263 92.9825 99.5685V99.4455C94.2172 100.913 95.5886 102.53 97.0238 104.229L104.314 112.923L106.496 115.574L107.079 116.303C107.143 116.387 107.198 116.477 107.243 116.572Z" fill="#160330"/>
<path d="M109.043 115.256C109.04 115.155 109.049 115.054 109.07 114.955L109.193 114.094C109.307 113.347 109.49 112.271 109.727 110.936C109.963 109.601 110.241 108.025 110.501 106.262C110.795 104.355 110.964 102.431 111.007 100.503C111.06 98.4166 110.908 96.3304 110.551 94.2744L110.633 94.3564L109.043 93.9782L108.802 93.919L109.016 93.7914L110.178 93.108L110.15 93.2401C109.645 92.5202 109.271 91.8322 108.92 91.2308C108.569 90.6294 108.282 90.1191 108.036 89.6817C107.79 89.2443 107.581 88.93 107.458 88.7067C107.38 88.5987 107.311 88.4844 107.253 88.365C107.28 88.3873 107.305 88.4134 107.325 88.4424C107.389 88.5183 107.448 88.5974 107.503 88.6794C107.654 88.889 107.863 89.2124 108.123 89.6271L109.034 91.1579C109.394 91.7457 109.786 92.4337 110.287 93.1308L110.346 93.2128L110.26 93.2674L109.107 93.9645L109.08 93.7823L110.67 94.1468H110.738V94.2151C111.123 96.288 111.295 98.3948 111.253 100.503C111.208 102.445 111.028 104.381 110.715 106.298C110.446 108.066 110.141 109.647 109.891 110.973C109.64 112.299 109.435 113.342 109.285 114.112C109.216 114.463 109.162 114.745 109.116 114.964C109.102 115.063 109.077 115.161 109.043 115.256Z" fill="#160330"/>
<path d="M110.551 120.158C110.445 120.252 110.325 120.329 110.196 120.386C109.959 120.518 109.612 120.696 109.18 120.905C106.916 121.989 104.542 122.828 102.099 123.407C101.644 123.516 101.252 123.598 100.988 123.643C100.851 123.681 100.71 123.696 100.568 123.689C101.056 123.509 101.554 123.357 102.058 123.233C102.97 122.974 104.25 122.591 105.626 122.103C107.002 121.616 108.232 121.115 109.111 120.737C109.579 120.514 110.06 120.321 110.551 120.158Z" fill="#160330"/>
<path d="M110.938 123.885C110.563 123.928 110.185 123.939 109.808 123.917C109.111 123.917 108.15 123.917 107.075 123.972C105.999 124.026 105.056 124.095 104.364 124.154C103.998 124.203 103.629 124.217 103.261 124.195C103.622 124.079 103.995 124.003 104.373 123.967C105.065 123.867 106.031 123.762 107.107 123.716C108.182 123.671 109.143 123.689 109.84 123.716C110.212 123.729 110.58 123.786 110.938 123.885Z" fill="#160330"/>
<path d="M109.184 120.254C109.047 119.429 108.986 118.594 109.002 117.757C108.942 116.924 108.96 116.086 109.057 115.256C109.197 116.081 109.258 116.917 109.239 117.753C109.302 118.586 109.284 119.424 109.184 120.254Z" fill="#160330"/>
<path d="M108.815 123.662C108.637 123.253 108.53 122.817 108.501 122.372C108.394 121.937 108.366 121.487 108.419 121.042C108.705 121.885 108.839 122.772 108.815 123.662Z" fill="#160330"/>
<path d="M111.663 141.44C111.617 141.216 111.593 140.989 111.59 140.761C111.558 140.305 111.512 139.686 111.44 138.907C111.307 137.339 111.07 135.18 110.72 132.81C110.369 130.441 109.954 128.295 109.64 126.773C109.48 126.003 109.335 125.384 109.239 124.951C109.173 124.731 109.13 124.505 109.111 124.277C109.202 124.488 109.275 124.705 109.33 124.928C109.453 125.347 109.622 125.962 109.786 126.728C110.159 128.259 110.597 130.396 110.952 132.769C111.307 135.143 111.517 137.326 111.608 138.888C111.658 139.676 111.676 140.31 111.681 140.752C111.698 140.981 111.692 141.212 111.663 141.44Z" fill="#160330"/>
<g opacity="0.3">
<path d="M92.2082 98.2566L92.7459 98.4798L92.1536 99.8467C92.1536 99.8467 101.266 110.991 103.758 113.146C106.765 115.761 106.852 116.099 106.852 116.099L92.8871 99.5095L93.7665 97.9468L92.2082 98.2566Z" fill="black"/>
</g>
<g opacity="0.3">
<path d="M98.7554 124.24L112.169 120.058C112.248 120.448 112.218 120.853 112.082 121.227C111.946 121.602 111.71 121.932 111.399 122.181C110.767 122.669 110.036 123.012 109.257 123.188C106.027 124.099 102.131 124.664 98.8055 124.24" fill="black"/>
</g>
<path d="M80.5579 114.171C79.8007 112.648 78.4701 111.488 76.8583 110.945C77.1136 110.938 77.3674 110.987 77.6009 111.091C78.7727 111.503 79.7425 112.347 80.3119 113.451C80.4444 113.671 80.5283 113.916 80.5579 114.171Z" fill="#160330"/>
<path d="M85.3281 101.719C85.3628 101.787 85.3873 101.859 85.401 101.933C85.4466 102.107 85.5013 102.312 85.565 102.562C85.7017 103.15 85.8885 103.929 86.1163 104.89C86.572 106.854 87.1916 109.574 87.8568 112.577C88.522 115.579 89.0961 118.276 89.5335 120.281C89.7339 121.242 89.898 122.035 90.0164 122.623C90.0665 122.878 90.1076 123.079 90.1394 123.261C90.1572 123.334 90.1679 123.409 90.1713 123.484C90.0664 123.211 89.9856 122.929 89.9299 122.641C89.7886 122.058 89.5973 121.274 89.3695 120.318C88.9138 118.354 88.2896 115.638 87.6244 112.631C86.9592 109.624 86.3669 106.881 85.9478 104.927C85.7518 103.965 85.5878 103.173 85.4921 102.585C85.4466 102.33 85.4056 102.129 85.3737 101.942C85.3492 101.87 85.3339 101.795 85.3281 101.719Z" fill="#160330"/>
<path d="M62.4563 108.704C62.4109 108.891 62.4204 109.088 62.4836 109.269C62.5194 109.36 62.5747 109.442 62.6455 109.509C62.7164 109.575 62.8011 109.626 62.8936 109.657C63.0054 109.682 63.1224 109.673 63.229 109.631C63.3356 109.589 63.4268 109.515 63.4905 109.42C63.5634 109.332 63.6084 109.224 63.6197 109.11C63.6311 108.997 63.6083 108.882 63.5543 108.782C63.4978 108.702 63.4252 108.636 63.3412 108.586C63.2572 108.537 63.1637 108.506 63.0668 108.495C62.8741 108.484 62.6825 108.53 62.5155 108.627C62.5155 108.627 62.5155 108.554 62.6157 108.477C62.7462 108.377 62.9072 108.325 63.0713 108.331C63.1991 108.331 63.325 108.361 63.439 108.419C63.553 108.477 63.6518 108.56 63.7274 108.663C63.8073 108.803 63.8444 108.963 63.834 109.123C63.8237 109.284 63.7664 109.438 63.6693 109.566C63.5722 109.694 63.4396 109.791 63.2879 109.844C63.1362 109.898 62.9722 109.905 62.8162 109.866C62.6958 109.823 62.5876 109.752 62.5004 109.658C62.4132 109.565 62.3496 109.452 62.315 109.329C62.2555 109.171 62.2555 108.998 62.315 108.841C62.3879 108.736 62.4471 108.704 62.4563 108.704Z" fill="#160330"/>
<path d="M132.006 60.8641C132.006 60.8641 132.043 60.7958 132.175 60.7593C132.266 60.747 132.36 60.7532 132.449 60.7774C132.538 60.8017 132.621 60.8436 132.694 60.9006C132.92 61.0637 133.072 61.3093 133.118 61.584C133.131 61.7626 133.084 61.9404 132.984 62.0891C132.884 62.2377 132.737 62.3486 132.567 62.4041C132.405 62.4714 132.228 62.4908 132.056 62.4601C131.884 62.4294 131.724 62.3499 131.596 62.231C131.501 62.1251 131.437 61.9957 131.408 61.8563C131.38 61.7169 131.39 61.5726 131.437 61.4382C131.583 60.9826 131.838 60.8459 131.851 60.8641C131.75 61.0614 131.666 61.2672 131.601 61.4792C131.572 61.5832 131.571 61.6929 131.597 61.7975C131.624 61.9021 131.677 61.9981 131.751 62.0761C131.852 62.1596 131.973 62.214 132.103 62.2332C132.232 62.2525 132.364 62.236 132.485 62.1854C132.607 62.1469 132.714 62.0697 132.789 61.9653C132.863 61.861 132.902 61.7351 132.899 61.6068C132.868 61.3844 132.758 61.1806 132.589 61.0327C132.48 60.9263 132.336 60.8631 132.184 60.855C132.075 60.8641 132.015 60.9051 132.006 60.8641Z" fill="#160330"/>
<path d="M67.6729 92.1375C70.6618 88.324 74.6986 85.3032 79.5737 84.5287C82.0887 84.1232 84.5262 84.5287 86.9137 85.3533C89.4469 86.2145 91.8754 87.235 94.5498 87.5859C97.6207 87.9914 100.705 87.7089 103.767 87.3581C104.359 87.2897 106.551 86.7339 106.551 86.0869C106.551 85.5402 104.364 85.0754 103.767 85.1438C100.988 85.4627 98.1765 85.7406 95.379 85.4718C92.6453 85.2075 90.1622 84.1277 87.5971 83.2529C85.0946 82.3299 82.4122 81.9993 79.7605 82.287C77.1073 82.6261 74.5586 83.5337 72.2883 84.9478C69.9134 86.4464 67.8206 88.351 66.1056 90.5747C65.9083 90.7871 65.7987 91.0662 65.7987 91.3561C65.7987 91.646 65.9083 91.9251 66.1056 92.1375C66.3145 92.3434 66.596 92.4588 66.8893 92.4588C67.1826 92.4588 67.4641 92.3434 67.6729 92.1375Z" fill="#E2CFFC"/>
<g opacity="0.3">
<path d="M67.6821 92.1694C70.671 88.3559 74.7077 85.3352 79.5829 84.5606C82.0616 84.2238 84.5851 84.5071 86.9274 85.3853C89.4606 86.2418 91.8891 87.267 94.559 87.6178C97.6299 88.0233 100.719 87.7408 103.776 87.39C104.373 87.3217 106.551 86.9344 106.551 86.292C106.551 85.7452 104.373 85.1073 103.776 85.1757C100.997 85.4946 98.1857 85.7726 95.3882 85.4992C92.6545 85.2395 90.176 84.1597 87.6108 83.2849C85.1065 82.3628 82.4232 82.0307 79.7697 82.3144C77.1164 82.6558 74.5679 83.5649 72.2975 84.9798C69.9239 86.4784 67.8326 88.383 66.1194 90.6067C65.9201 90.818 65.8091 91.0975 65.8091 91.388C65.8091 91.6785 65.9201 91.9581 66.1194 92.1694C66.3274 92.375 66.6082 92.4904 66.9007 92.4904C67.1933 92.4904 67.474 92.375 67.6821 92.1694Z" fill="black"/>
</g>
<path d="M111.007 65.2424C112.046 64.6546 112.251 63.0736 111.544 62.1032C111.163 61.64 110.651 61.3021 110.075 61.1331C109.499 60.9641 108.885 60.9719 108.314 61.1555C108.437 60.8097 108.444 60.4335 108.336 60.083C108.227 59.7325 108.009 59.4263 107.713 59.21C107.108 58.7916 106.383 58.582 105.649 58.6131C104.669 58.6131 103.548 58.9184 103.147 59.8114C102.992 59.2282 102.332 58.9321 101.73 58.9002C100.923 58.8726 100.133 59.1436 99.5131 59.6613C98.8928 60.1791 98.4851 60.9073 98.3679 61.7068C97.8291 61.3994 97.2081 61.2672 96.591 61.3286C96.2839 61.367 95.9982 61.5057 95.7782 61.7232C95.5582 61.9408 95.4163 62.2249 95.3745 62.5314C95.1682 62.3078 94.9092 62.1393 94.6211 62.0414C94.333 61.9435 94.025 61.9193 93.7251 61.971C93.2829 61.9837 92.8551 62.1316 92.4995 62.3948C92.3252 62.5295 92.196 62.7142 92.1293 62.9242C92.0625 63.1342 92.0614 63.3596 92.1259 63.5703C91.7064 63.4988 91.2753 63.5855 90.9161 63.8138C90.5569 64.042 90.2953 64.3954 90.1818 64.8056C90.0683 65.2157 90.1112 65.6534 90.302 66.0337C90.4928 66.4141 90.8181 66.7101 91.2147 66.8644C90.9268 67.1013 90.704 67.4077 90.5672 67.7546C90.4305 68.1015 90.3843 68.4775 90.4331 68.8472C90.4819 69.2168 90.624 69.568 90.846 69.8676C91.068 70.1671 91.3627 70.4052 91.7022 70.5594C91.6192 70.5959 91.5456 70.6508 91.487 70.7199C91.4284 70.789 91.3863 70.8706 91.3639 70.9584C91.3415 71.0462 91.3394 71.138 91.3577 71.2268C91.3761 71.3155 91.4144 71.3989 91.4698 71.4707C91.6885 71.7714 91.5427 71.7896 91.9254 71.7805C91.9983 73.0562 92.0986 74.0358 92.1715 75.3115C92.2216 76.1362 92.2034 77.216 92.5041 77.9814C92.7296 78.4101 93.0377 78.7898 93.4107 79.0986C93.7837 79.4075 94.2142 79.6395 94.6774 79.7811L109.872 74.0768C110.376 73.5414 110.718 72.8743 110.858 72.1526C110.999 71.4309 110.932 70.6842 110.665 69.999C110.616 69.938 110.582 69.8667 110.565 69.7906C110.548 69.7144 110.549 69.6354 110.567 69.5595C110.585 69.4836 110.62 69.4127 110.669 69.3523C110.718 69.2919 110.781 69.2435 110.852 69.2108C111.16 68.9739 111.416 68.6768 111.606 68.3377C111.795 67.9985 111.914 67.6244 111.954 67.238C111.983 66.8517 111.911 66.4646 111.745 66.1147C111.579 65.7649 111.324 65.4642 111.007 65.2424Z" fill="#160330"/>
<path d="M109.64 70.4318C109.298 67.3564 105.835 64.4313 102.806 64.9006L92.946 67.2425L93.0599 68.9009L95.575 91.2262L106.232 97.5775L105.608 86.6017C105.608 86.6017 109.499 85.7634 110.064 80.5784C110.346 78.0224 110.013 73.8307 109.64 70.4318Z" fill="#FFBE9D"/>
<path d="M107.74 74.9014C107.749 75.0722 107.691 75.2399 107.579 75.369C107.467 75.4982 107.309 75.5788 107.139 75.5939C106.973 75.6105 106.808 75.5608 106.679 75.4558C106.55 75.3507 106.468 75.1989 106.451 75.0335C106.439 74.8616 106.496 74.6922 106.609 74.5618C106.721 74.4313 106.88 74.3504 107.052 74.3364C107.218 74.3211 107.383 74.3719 107.512 74.4776C107.641 74.5834 107.723 74.7356 107.74 74.9014Z" fill="#160330"/>
<path d="M108.833 72.6372C108.756 72.7283 108.237 72.382 107.53 72.4185C106.824 72.4549 106.323 72.8331 106.246 72.7511C106.168 72.6691 106.277 72.5552 106.496 72.3775C106.792 72.1528 107.15 72.024 107.521 72.0084C107.891 71.9862 108.257 72.0854 108.565 72.2909C108.788 72.4458 108.87 72.6007 108.833 72.6372Z" fill="#160330"/>
<path d="M101.553 75.0974C101.564 75.2681 101.508 75.4364 101.396 75.566C101.284 75.6955 101.126 75.776 100.956 75.79C100.872 75.8008 100.788 75.7947 100.707 75.7722C100.626 75.7497 100.55 75.7112 100.484 75.6589C100.419 75.6067 100.364 75.5418 100.323 75.468C100.283 75.3943 100.258 75.3132 100.25 75.2296C100.238 75.0584 100.294 74.8896 100.406 74.7593C100.517 74.629 100.676 74.5476 100.846 74.5325C100.93 74.5217 101.015 74.5279 101.096 74.5507C101.178 74.5735 101.254 74.6124 101.319 74.6651C101.385 74.7178 101.44 74.7833 101.48 74.8576C101.52 74.9318 101.545 75.0134 101.553 75.0974Z" fill="#160330"/>
<path d="M101.917 73.2521C101.84 73.3432 101.325 72.997 100.619 73.0334C99.9125 73.0699 99.4113 73.448 99.3293 73.3615C99.2473 73.2749 99.3658 73.1701 99.5845 72.9924C99.8769 72.7659 100.232 72.6355 100.602 72.6192C100.972 72.6029 101.337 72.7014 101.648 72.9013C101.894 73.0608 101.954 73.2111 101.917 73.2521Z" fill="#160330"/>
<path d="M104.71 78.2457C105.077 78.1084 105.46 78.0195 105.849 77.9815C106.027 77.9541 106.195 77.9085 106.223 77.7855C106.228 77.5973 106.177 77.4118 106.077 77.2525L105.476 75.8856C104.637 73.9538 104.022 72.3637 104.109 72.3318C104.195 72.2999 104.929 73.8353 105.767 75.7671C105.968 76.2228 106.159 76.6784 106.346 77.134C106.468 77.3477 106.513 77.5971 106.473 77.8402C106.45 77.9061 106.413 77.9659 106.363 78.0149C106.313 78.0639 106.253 78.1008 106.186 78.1227C106.089 78.154 105.988 78.1724 105.886 78.1774C105.498 78.2471 105.103 78.27 104.71 78.2457Z" fill="#160330"/>
<path d="M105.608 86.6198C103.196 86.7715 100.79 86.2476 98.6595 85.1072C98.6595 85.1072 100.755 88.9298 105.858 88.2054L105.608 86.6198Z" fill="#EB996E"/>
<path d="M104.496 79.968C104.353 79.8051 104.171 79.6812 103.967 79.6079C103.763 79.5346 103.544 79.5143 103.33 79.5489C103.176 79.568 103.027 79.6182 102.893 79.6966C102.759 79.7749 102.643 79.8797 102.55 80.0045C102.464 80.1289 102.418 80.2767 102.418 80.4282C102.418 80.5797 102.464 80.7275 102.55 80.8519C102.669 80.9748 102.823 81.0588 102.99 81.093C103.158 81.1271 103.332 81.1098 103.489 81.0433C103.818 80.9099 104.117 80.7115 104.368 80.4601C104.445 80.3996 104.51 80.3254 104.56 80.2414C104.584 80.2017 104.597 80.156 104.597 80.1093C104.597 80.0626 104.584 80.0168 104.56 79.9772" fill="#EB996E"/>
<path d="M102.655 78.8335C102.769 78.8335 102.81 79.5898 103.494 80.1092C104.177 80.6286 104.988 80.5011 104.997 80.6058C105.006 80.7106 104.824 80.7653 104.478 80.7927C104.029 80.8199 103.585 80.6875 103.225 80.419C102.877 80.159 102.643 79.7759 102.569 79.3483C102.528 79.0249 102.601 78.8335 102.655 78.8335Z" fill="#160330"/>
<path d="M102.008 70.7053C101.945 70.9012 101.238 70.8465 100.414 70.9832C99.589 71.1199 98.9283 71.3841 98.8099 71.2156C98.7552 71.1336 98.8646 70.9468 99.1243 70.76C99.4749 70.5155 99.8764 70.3536 100.299 70.2865C100.721 70.2194 101.153 70.2489 101.562 70.3727C101.894 70.4684 102.031 70.6142 102.008 70.7053Z" fill="#160330"/>
<path d="M108.473 70.5959C108.355 70.7644 107.858 70.5959 107.275 70.6414C106.692 70.687 106.2 70.8009 106.077 70.6414C106.022 70.5594 106.077 70.3954 106.3 70.2314C106.582 70.0336 106.917 69.9256 107.262 69.9215C107.606 69.912 107.945 70.0091 108.232 70.1995C108.446 70.3544 108.524 70.5138 108.473 70.5959Z" fill="#160330"/>
<path d="M107.234 64.5862L106.915 64.454C107.412 63.3423 106.574 61.9163 105.389 61.6383C104.788 61.535 104.17 61.6286 103.626 61.9053C103.083 62.182 102.643 62.6269 102.373 63.1738C102.1 62.6967 101.673 62.3259 101.163 62.1216C100.653 61.9173 100.088 61.8915 99.5617 62.0484C98.7006 62.3354 98.0855 63.0735 97.4932 63.7661C97.361 63.921 97.1925 64.0895 96.9874 64.0668C96.8415 64.0281 96.711 63.9454 96.6138 63.8298C96.1007 63.4067 95.4721 63.1478 94.8098 63.0868C94.1475 63.0259 93.4822 63.1657 92.9005 63.4881C92.3275 63.8245 91.8278 64.2724 91.431 64.8054C91.0343 65.3383 90.7484 65.9455 90.5906 66.5909C90.4253 67.1126 90.397 67.668 90.5085 68.2038C90.5664 68.4693 90.6934 68.7149 90.8766 68.9157C91.0598 69.1165 91.2927 69.2654 91.5519 69.3474C91.3206 69.6722 91.167 70.0459 91.1031 70.4396C91.0392 70.8333 91.0667 71.2364 91.1834 71.6177C91.3001 71.9991 91.5029 72.3485 91.7761 72.639C92.0494 72.9295 92.3858 73.1533 92.7593 73.293C92.814 73.4667 92.889 73.6334 92.9825 73.7896C92.8961 74.7256 92.8641 75.6657 92.8869 76.6054C92.8731 77.0113 92.9575 77.4145 93.1329 77.7809C93.2263 77.96 93.3741 78.105 93.5549 78.195C93.7358 78.2851 93.9406 78.3155 94.1398 78.282C94.5635 78.1636 95.1558 77.9449 95.2834 77.5212C95.5067 76.7648 95.2606 75.7215 95.3199 74.9333C95.7587 74.8679 96.1695 74.6778 96.5034 74.3856C96.8373 74.0934 97.0801 73.7114 97.203 73.2851C97.3259 72.8588 97.3237 72.4061 97.1966 71.981C97.0696 71.5559 96.823 71.1763 96.4862 70.8874C96.8541 71.0408 97.253 71.1046 97.6503 71.0735C98.0476 71.0425 98.4319 70.9174 98.7714 70.7088C99.1109 70.5001 99.3959 70.2137 99.603 69.8732C99.8102 69.5328 99.9334 69.148 99.9626 68.7505C100.326 69.09 100.758 69.3472 101.23 69.5044C101.702 69.6617 102.202 69.7154 102.696 69.6618C103.172 69.6359 103.618 69.4249 103.94 69.074C104.093 68.8927 104.173 68.6616 104.167 68.4246C104.16 68.1877 104.066 67.9616 103.904 67.7892C104.357 67.9919 104.86 68.0567 105.35 67.9757C105.841 67.8947 106.296 67.6714 106.66 67.3335C107.012 66.9806 107.254 66.533 107.355 66.0452C107.457 65.5574 107.415 65.0505 107.234 64.5862Z" fill="#160330"/>
<path d="M94.3813 75.7398C94.3038 75.708 91.3241 74.9288 91.5154 77.9496C91.7068 80.9703 94.682 80.1639 94.682 80.0773C94.682 79.9908 94.3813 75.7398 94.3813 75.7398Z" fill="#FFBE9D"/>
<path d="M93.6932 78.9884C93.6932 78.9884 93.6431 79.0294 93.5565 79.0749C93.4351 79.1365 93.2944 79.1479 93.1647 79.1068C92.9627 78.9934 92.7941 78.8289 92.6757 78.6298C92.5574 78.4307 92.4935 78.204 92.4904 77.9723C92.4685 77.7145 92.5027 77.4549 92.5906 77.2115C92.6134 77.1158 92.6588 77.0269 92.723 76.9524C92.7872 76.8779 92.8684 76.8199 92.9597 76.7832C93.0193 76.763 93.0842 76.7647 93.1427 76.7881C93.2012 76.8115 93.2494 76.855 93.2786 76.9108C93.3242 76.9928 93.3105 77.052 93.3242 77.0566C93.3378 77.0611 93.3879 77.0019 93.356 76.8789C93.3338 76.8049 93.2873 76.7407 93.2239 76.6966C93.1816 76.668 93.1341 76.648 93.084 76.6379C93.034 76.6277 92.9824 76.6275 92.9323 76.6374C92.8099 76.6691 92.6977 76.7319 92.6067 76.8197C92.5157 76.9075 92.4489 77.0173 92.4129 77.1386C92.2999 77.4074 92.256 77.7004 92.2853 77.9906C92.2854 78.2607 92.3655 78.5247 92.5155 78.7493C92.6656 78.9739 92.8788 79.1491 93.1282 79.2526C93.2076 79.2672 93.2891 79.265 93.3676 79.2461C93.4461 79.2273 93.5197 79.1923 93.5839 79.1433C93.6932 79.0613 93.6932 78.9929 93.6932 78.9884Z" fill="#EB996E"/>
<path d="M99.8123 68.2408C99.8395 68.2437 99.867 68.2437 99.8943 68.2408L100.136 68.2681C100.44 68.2911 100.746 68.2758 101.047 68.2225C101.266 68.1803 101.478 68.1114 101.68 68.0175C101.92 67.9097 102.135 67.7548 102.314 67.5619C102.515 67.3324 102.657 67.0571 102.728 66.76C102.808 66.4244 102.762 66.0714 102.601 65.7668L102.519 65.8442C103.148 66.2468 103.892 66.4339 104.637 66.3773C105.044 66.3523 105.443 66.2518 105.813 66.0811C106.007 65.9907 106.188 65.8742 106.35 65.7349C106.516 65.5833 106.637 65.3896 106.701 65.1745C106.766 64.9257 106.773 64.6657 106.724 64.4136C106.684 64.1707 106.625 63.9315 106.546 63.6983C106.475 63.4682 106.372 63.2491 106.241 63.0467C106.176 62.9426 106.089 62.8542 105.986 62.788C105.883 62.7217 105.766 62.6794 105.644 62.664V62.787C106.091 62.9011 106.564 62.8593 106.984 62.6686C107.37 62.5041 107.701 62.2341 107.94 61.8895C108.148 61.5871 108.264 61.231 108.273 60.8643C108.276 60.4813 108.178 60.1043 107.989 59.7709C107.8 59.4376 107.527 59.1595 107.198 58.9644C107.057 58.881 106.903 58.8225 106.742 58.7913C106.885 58.8539 107.025 58.9239 107.161 59.0008C107.53 59.2342 107.82 59.5742 107.991 59.9759C108.112 60.256 108.171 60.5591 108.164 60.8643C108.156 61.2179 108.042 61.561 107.836 61.8485C107.607 62.1723 107.291 62.425 106.924 62.5774C106.528 62.7539 106.083 62.7908 105.662 62.6822L105.64 62.8098C105.743 62.824 105.841 62.8613 105.928 62.9189C106.015 62.9764 106.088 63.0529 106.141 63.1424C106.266 63.3319 106.361 63.5393 106.423 63.7575C106.605 64.1999 106.659 64.6847 106.578 65.1562C106.51 65.3442 106.402 65.5151 106.261 65.6568C106.121 65.7985 105.95 65.9076 105.763 65.9764C105.407 66.1407 105.024 66.2395 104.633 66.2679C103.915 66.3246 103.197 66.1489 102.587 65.7668L102.391 65.6392L102.505 65.8442C102.657 66.1224 102.701 66.4469 102.628 66.7555C102.564 67.0369 102.435 67.2993 102.25 67.5209C102.082 67.7118 101.878 67.8668 101.648 67.9765C101.455 68.0719 101.249 68.1423 101.038 68.1861C100.738 68.2481 100.432 68.2741 100.127 68.2636C100.022 68.2495 99.9174 68.2419 99.8123 68.2408Z" fill="white"/>
<path d="M107.817 66.7049C107.817 66.7049 107.877 66.7459 107.995 66.7777C108.212 66.8332 108.44 66.8361 108.659 66.7862C108.877 66.7362 109.081 66.635 109.253 66.4907C109.318 66.4333 109.371 66.3634 109.408 66.2851C109.446 66.2069 109.467 66.1218 109.471 66.0351C109.475 65.9424 109.453 65.8504 109.407 65.7698C109.361 65.6892 109.293 65.6232 109.212 65.5795L109.166 65.7071H109.212C109.506 65.7746 109.812 65.7766 110.107 65.7128C110.402 65.649 110.68 65.5211 110.92 65.338C111.065 65.2285 111.192 65.0979 111.298 64.9507C111.341 64.8995 111.373 64.8408 111.394 64.7776C111.232 64.9532 111.055 65.1148 110.865 65.2605C110.632 65.4226 110.367 65.5346 110.088 65.5895C109.809 65.6444 109.521 65.641 109.243 65.5795H109.202L108.569 65.4382L109.157 65.7025C109.218 65.7367 109.267 65.7874 109.3 65.8487C109.333 65.9099 109.348 65.9793 109.344 66.0488C109.333 66.1862 109.271 66.3146 109.171 66.4087C108.985 66.5759 108.756 66.6865 108.51 66.7276C108.279 66.7539 108.046 66.7462 107.817 66.7049Z" fill="white"/>
<path d="M132.307 58.6633L132.64 56.7771C132.64 56.7771 131.537 52.6765 131.651 52.0842C131.765 51.4919 131.888 48.6808 131.888 48.6808L134.722 45.4914C134.921 45.4839 135.119 45.5357 135.289 45.6403C135.459 45.7449 135.595 45.8977 135.678 46.0792C135.678 46.0792 136.972 45.9744 137.264 46.8492C137.375 46.7895 137.5 46.7591 137.626 46.7609C137.752 46.7628 137.876 46.7968 137.986 46.8597C138.095 46.9226 138.187 47.0124 138.252 47.1206C138.317 47.2288 138.353 47.3518 138.358 47.4779C138.416 47.7473 138.442 48.0226 138.435 48.298C138.622 48.339 139.697 48.5942 139.706 49.1273C139.673 49.9472 139.52 50.7577 139.251 51.5329C139.194 51.6707 139.105 51.7926 138.991 51.8879C138.876 51.9832 138.74 52.0491 138.594 52.0797L138.276 53.5331C138.276 53.5331 137.998 55.9205 137.465 57.0322L137.059 57.6929L136.936 60.6681L132.307 58.6633Z" fill="#FFBE9D"/>
<path d="M136.521 48.0749C136.367 47.3134 136.057 46.592 135.61 45.9563L134.526 46.6488C134.652 47.0176 134.804 47.3769 134.981 47.7241C135.057 47.9291 135.178 48.1141 135.336 48.2649C135.494 48.4158 135.684 48.5285 135.893 48.5943C136.134 48.6536 136.444 48.5943 136.521 48.3574C136.544 48.2646 136.544 48.1677 136.521 48.0749Z" fill="#FFBE9D"/>
<path d="M134.53 46.6492C134.536 46.7257 134.552 46.801 134.581 46.8724C134.645 47.0688 134.722 47.2606 134.813 47.4465C134.868 47.5695 134.922 47.7016 134.986 47.8429C135.055 47.9942 135.148 48.134 135.259 48.2575C135.386 48.3981 135.541 48.51 135.715 48.5855C135.811 48.6263 135.914 48.6473 136.018 48.6473C136.122 48.6473 136.225 48.6263 136.321 48.5855C136.372 48.5644 136.419 48.5328 136.457 48.4928C136.495 48.4528 136.525 48.4052 136.544 48.3532C136.569 48.2529 136.569 48.1481 136.544 48.0479C136.515 47.8658 136.472 47.6861 136.417 47.5103C136.325 47.2163 136.208 46.9312 136.066 46.6583C135.943 46.4213 135.829 46.2437 135.751 46.1206C135.711 46.0546 135.666 45.9921 135.615 45.9338C135.645 46.0047 135.68 46.0732 135.72 46.1389C135.792 46.2664 135.893 46.4487 136.007 46.6856C136.141 46.9596 136.253 47.2447 136.339 47.5376C136.388 47.7101 136.427 47.885 136.458 48.0616C136.478 48.1469 136.478 48.2359 136.458 48.3213C136.443 48.3621 136.42 48.3994 136.39 48.4307C136.361 48.4621 136.325 48.4869 136.285 48.5035C136.2 48.5395 136.11 48.558 136.018 48.558C135.926 48.558 135.836 48.5395 135.751 48.5035C135.59 48.4356 135.445 48.3329 135.328 48.2028C135.218 48.0842 135.126 47.9508 135.054 47.8064C134.991 47.6743 134.936 47.5376 134.877 47.4191C134.78 47.2372 134.693 47.0501 134.617 46.8587C134.594 46.7867 134.565 46.7166 134.53 46.6492Z" fill="#EB996E"/>
<path d="M136.257 48.5621C136.257 48.5621 136.257 48.5621 136.257 48.6259C136.252 48.688 136.252 48.7505 136.257 48.8127C136.273 49.0409 136.333 49.2638 136.435 49.4687C136.59 49.772 136.817 50.0331 137.096 50.2296C137.18 50.2913 137.276 50.3346 137.378 50.3566C137.48 50.3785 137.586 50.3788 137.688 50.3572C137.8 50.3361 137.902 50.2765 137.975 50.1886C138.048 50.0947 138.088 49.9795 138.089 49.8606C138.076 49.6464 138.041 49.434 137.984 49.2273C137.934 49.0268 137.879 48.8354 137.824 48.6532L137.528 47.6964C137.446 47.4276 137.383 47.2043 137.346 47.054C137.331 46.9711 137.306 46.8901 137.273 46.8125C137.276 46.8956 137.289 46.9781 137.31 47.0585C137.342 47.218 137.392 47.4413 137.469 47.7146C137.547 47.988 137.642 48.3206 137.747 48.676C137.797 48.8582 137.847 49.0496 137.897 49.2455C137.951 49.4452 137.985 49.6497 137.998 49.856C138 49.9549 137.968 50.0515 137.907 50.1294C137.845 50.2015 137.762 50.2525 137.67 50.2752C137.578 50.2924 137.485 50.2911 137.394 50.2716C137.303 50.252 137.217 50.2145 137.141 50.1613C136.872 49.986 136.647 49.7505 136.485 49.4733C136.379 49.2781 136.311 49.0648 136.285 48.8446C136.262 48.6714 136.266 48.5621 136.257 48.5621Z" fill="#EB996E"/>
<path d="M136.95 50.116C136.95 50.116 136.95 50.116 136.922 50.1889C136.895 50.2618 136.895 50.3074 136.877 50.403C136.834 50.6702 136.834 50.9423 136.877 51.2095C136.93 51.6146 137.118 51.99 137.41 52.2756C137.588 52.4486 137.826 52.5464 138.075 52.549C138.143 52.5478 138.209 52.5331 138.271 52.5057C138.333 52.4783 138.389 52.4388 138.435 52.3895C138.523 52.2836 138.577 52.1533 138.59 52.0159C138.625 51.5275 138.625 51.0373 138.59 50.5488C138.553 50.0932 138.521 49.7059 138.494 49.3642C138.467 49.0225 138.458 48.7537 138.449 48.5669C138.454 48.4683 138.454 48.3694 138.449 48.2708C138.449 48.2708 138.449 48.2981 138.449 48.3482C138.449 48.3983 138.449 48.4712 138.449 48.5669C138.449 48.7537 138.449 49.0225 138.449 49.3688C138.449 49.7151 138.499 50.1114 138.526 50.558C138.558 51.0388 138.558 51.5214 138.526 52.0023C138.516 52.1209 138.469 52.2337 138.394 52.3258C138.357 52.3678 138.311 52.4017 138.26 52.4252C138.209 52.4487 138.154 52.4614 138.098 52.4624C137.872 52.457 137.656 52.3677 137.492 52.2118C137.209 51.941 137.024 51.5834 136.968 51.1958C136.899 50.8397 136.892 50.4742 136.95 50.116Z" fill="#EB996E"/>
<path d="M108.223 48.6168L108.268 48.5029L108.337 48.6032C108.391 48.6811 108.467 48.7414 108.556 48.7763L108.665 48.8219L108.569 48.8902C108.488 48.9425 108.426 49.0191 108.392 49.1089L108.346 49.2182L108.282 49.118C108.227 49.0411 108.151 48.9812 108.063 48.9449L107.954 48.8993L108.05 48.831C108.127 48.7773 108.187 48.7031 108.223 48.6168Z" fill="#E0E0E0"/>
<path d="M138.567 36.0328L138.645 35.8459L138.763 36.01C138.856 36.1446 138.985 36.2492 139.137 36.3107L139.324 36.3881L139.159 36.5066C139.024 36.5978 138.919 36.7281 138.859 36.8802L138.781 37.067L138.663 36.903C138.57 36.7683 138.441 36.6638 138.289 36.6023L138.098 36.5248L138.266 36.4064C138.4 36.3126 138.504 36.1831 138.567 36.0328Z" fill="#E0E0E0"/>
<path d="M137.232 29.2304L137.36 28.916L137.56 29.1939C137.716 29.4206 137.934 29.5965 138.189 29.6997L138.503 29.8273L138.225 30.0277C138 30.1842 137.824 30.4026 137.72 30.6565L137.592 30.9709L137.396 30.6929C137.238 30.467 137.018 30.2914 136.763 30.1872L136.448 30.0596L136.726 29.8637C136.952 29.7056 137.128 29.4857 137.232 29.2304Z" fill="#E0E0E0"/>
<path d="M121.864 57.5154L121.75 57.1919L122.083 57.2739C122.35 57.3371 122.629 57.3245 122.889 57.2374L123.213 57.1235L123.135 57.4561C123.067 57.7226 123.08 58.0033 123.172 58.2626L123.281 58.5861L122.948 58.5041C122.681 58.4408 122.402 58.4534 122.142 58.5405L121.818 58.6544L121.9 58.3218C121.964 58.0549 121.951 57.7755 121.864 57.5154Z" fill="#E0E0E0"/>
<path d="M116.333 45.8284C115.754 46.5255 115.157 47.1953 114.597 47.9152C114.348 48.2153 114.168 48.566 114.069 48.943C113.97 49.3199 113.954 49.7139 114.023 50.0976C114.11 50.4873 114.277 50.855 114.512 51.1778C114.747 51.5007 115.046 51.7719 115.39 51.9747C117.518 53.4327 120.124 54.6629 122.766 54.3394C124.562 54.0851 126.193 53.1525 127.322 51.7332C127.415 51.6168 127.458 51.4688 127.443 51.3209C127.428 51.173 127.355 51.0369 127.241 50.9417C127.127 50.8466 126.98 50.7998 126.832 50.8115C126.683 50.8232 126.546 50.8924 126.448 51.0043C125.6 52.0819 124.408 52.8361 123.072 53.1411C121.918 53.3414 120.733 53.2458 119.627 52.8632C118.567 52.5123 117.556 52.0269 116.62 51.4189C116.123 51.1729 115.685 50.8233 115.335 50.3937C115.173 50.1241 115.099 49.8107 115.124 49.4971C115.148 49.1835 115.27 48.8854 115.472 48.6442C116.032 47.9334 116.634 47.2773 117.212 46.5574C117.309 46.4408 117.355 46.2906 117.341 46.1398C117.327 45.989 117.254 45.8499 117.137 45.7533C117.02 45.6566 116.87 45.6102 116.719 45.6243C116.569 45.6384 116.43 45.7118 116.333 45.8284Z" fill="#A76EF7"/>
<path d="M128.179 33.258C128.726 32.602 129.268 31.9459 129.815 31.2943C129.956 31.0948 130.141 30.93 130.356 30.8124C130.571 30.6948 130.809 30.6275 131.054 30.6155C131.728 30.6155 132.152 31.0711 132.585 31.5267C134.116 33.1031 135.537 35.1261 135.692 37.3859C135.759 38.9041 135.241 40.3902 134.243 41.5366C134.151 41.6531 134.108 41.8011 134.123 41.949C134.138 42.0969 134.21 42.2329 134.325 42.3281C134.439 42.4233 134.586 42.4701 134.734 42.4584C134.882 42.4467 135.02 42.3775 135.118 42.2656C136.179 41.042 136.795 39.4959 136.867 37.878C136.864 36.4756 136.495 35.0984 135.797 33.8822C135.165 32.7514 134.382 31.7121 133.469 30.7931C133.016 30.2169 132.405 29.7861 131.71 29.5539C131.3 29.4517 130.871 29.4501 130.46 29.5493C130.049 29.6485 129.668 29.8454 129.35 30.1234C128.609 30.8698 127.925 31.6709 127.304 32.5199C127.256 32.5774 127.22 32.6437 127.197 32.7152C127.174 32.7867 127.166 32.862 127.173 32.9366C127.179 33.0113 127.201 33.084 127.235 33.1505C127.27 33.2169 127.317 33.2759 127.375 33.3241C127.432 33.3723 127.499 33.4087 127.57 33.4312C127.642 33.4537 127.717 33.4619 127.791 33.4553C127.866 33.4488 127.939 33.4276 128.005 33.3929C128.072 33.3583 128.131 33.3109 128.179 33.2535V33.258Z" fill="#A76EF7"/>
<path d="M136.357 49.2869L135.159 50.1981V50.2346H135.127L134.453 51.6014C134.453 51.6014 136.553 53.6107 137.446 55.7931L139.223 53.6654L139.269 53.6061L141.046 51.4784C138.713 50.9954 136.357 49.2869 136.357 49.2869Z" fill="#A76EF7"/>
<path d="M136.872 49.018L134.266 52.1435C134.186 52.2401 134.088 52.3199 133.977 52.3784C133.866 52.4369 133.745 52.4729 133.62 52.4843C133.495 52.4957 133.369 52.4824 133.249 52.445C133.129 52.4076 133.018 52.347 132.922 52.2666C132.822 52.1863 132.739 52.0868 132.679 51.9739C132.618 51.8609 132.581 51.7369 132.57 51.6093C132.558 51.4817 132.573 51.3531 132.612 51.2311C132.651 51.1092 132.715 50.9965 132.799 50.8997L135.405 47.7742C135.485 47.6776 135.584 47.5978 135.694 47.5393C135.805 47.4808 135.927 47.4448 136.052 47.4334C136.177 47.422 136.303 47.4353 136.422 47.4727C136.542 47.5101 136.653 47.5707 136.749 47.6511C136.849 47.7314 136.932 47.8309 136.992 47.9438C137.053 48.0568 137.09 48.1808 137.102 48.3084C137.113 48.436 137.099 48.5647 137.059 48.6866C137.02 48.8085 136.956 48.9212 136.872 49.018Z" fill="#A76EF7"/>
<path d="M126.042 30.1057L119.891 37.4958L119.563 37.8877L113.74 44.8632C113.845 45.0363 127.764 57.8665 134.303 49.5105C141.365 41.5508 126.238 30.1832 126.042 30.1057Z" fill="#A76EF7"/>
<path d="M126.042 30.1057C126.095 30.1295 126.144 30.1601 126.188 30.1968C126.284 30.2606 126.42 30.3563 126.593 30.493C126.949 30.7572 127.459 31.1627 128.097 31.714C129.9 33.2607 131.544 34.9839 133.004 36.858C134.018 38.1556 134.859 39.5801 135.505 41.0952C136.299 42.8416 136.482 44.8044 136.025 46.6674C135.741 47.662 135.243 48.5826 134.567 49.3647C133.925 50.2285 133.12 50.9576 132.197 51.5106C131.22 52.0588 130.128 52.3709 129.008 52.4219C127.864 52.4734 126.72 52.349 125.614 52.0528C123.265 51.385 121.033 50.3616 118.994 49.0184C118.005 48.3897 117.066 47.729 116.173 47.0501C115.718 46.7084 115.299 46.3622 114.884 46.0159L114.264 45.4874C114.059 45.3006 113.877 45.1548 113.658 44.927L113.608 44.8723L113.668 44.7994C117.312 40.4482 120.406 36.7668 122.589 34.1607L125.131 31.1536L125.805 30.3654L125.983 30.1695C126.001 30.1464 126.02 30.125 126.042 30.1057C126.027 30.1336 126.009 30.1596 125.987 30.1832L125.814 30.3973L125.154 31.2174L122.657 34.2655L113.836 44.9178L113.763 44.8449L113.845 44.7948L113.873 44.8222L113.945 44.886L114.091 45.0226L114.387 45.2823L115.021 45.8291C115.44 46.1753 115.868 46.5125 116.31 46.8497C117.199 47.524 118.133 48.1801 119.117 48.8043C121.138 50.1356 123.35 51.1511 125.678 51.8159C126.76 52.1055 127.88 52.2284 128.999 52.1804C130.082 52.128 131.137 51.8254 132.084 51.2965C132.982 50.7567 133.768 50.0481 134.398 49.2098C135.056 48.4516 135.541 47.5592 135.82 46.5945C136.268 44.7771 136.095 42.8619 135.328 41.1544C134.694 39.6577 133.87 38.2489 132.876 36.9628C131.432 35.0861 129.812 33.3515 128.038 31.7824C127.409 31.2493 126.912 30.7937 126.571 30.5294L126.179 30.2151L126.042 30.1057Z" fill="#160330"/>
<g opacity="0.3">
<path d="M126.042 30.1052C126.953 30.8524 127.815 31.5222 128.621 32.2557C134.066 37.1992 137.574 42.7942 135.61 47.5417L134.107 49.8198C134.107 49.8198 135.692 43.997 132.74 39.7962C129.787 35.5954 125.723 30.816 125.723 30.816L126.042 30.1052Z" fill="black"/>
</g>
<path d="M144.786 50.3028L137.109 59.4971C136.81 59.2481 136.563 58.9425 136.382 58.5979C136.201 58.2533 136.09 57.8764 136.055 57.4888C136.02 57.1012 136.061 56.7105 136.177 56.339C136.293 55.9675 136.481 55.6225 136.731 55.3237L140.622 50.6809C140.871 50.3819 141.177 50.1349 141.521 49.954C141.866 49.7731 142.243 49.662 142.63 49.6268C143.018 49.5917 143.409 49.6333 143.78 49.7493C144.152 49.8653 144.497 50.0534 144.795 50.3028H144.786Z" fill="#A76EF7"/>
<path d="M145.931 48.695L135.627 61.062L141.578 66.02L151.882 53.6529L145.931 48.695Z" fill="#160330"/>
<path d="M145.935 51.8208L138.647 60.5684L141.563 62.9978L148.851 54.2502L145.935 51.8208Z" fill="#E2CFFC"/>
<path d="M123.677 40.4341L126.548 41.1266L128.748 39.1538L128.976 42.0971L131.537 43.5779L128.803 44.7078L128.188 47.601L126.27 45.3502L123.331 45.6555L124.876 43.1359L123.677 40.4341Z" fill="white"/>
<path d="M131.172 50.8951L131.136 50.927L131.031 51.009C130.888 51.1107 130.735 51.1992 130.576 51.2733C130.33 51.3896 130.072 51.4753 129.806 51.5284C129.455 51.6004 129.097 51.6325 128.739 51.6241C128.305 51.6178 127.872 51.5736 127.445 51.492L126.73 51.3553C126.489 51.3006 126.243 51.2323 125.988 51.173C124.892 50.8689 123.824 50.4695 122.798 49.9793C121.768 49.4916 120.769 48.9424 119.805 48.3345C118.894 47.7787 118.128 47.2411 117.477 46.79C116.825 46.3389 116.306 45.9517 115.95 45.6874L115.563 45.373L115.454 45.2956L115.422 45.2637L115.458 45.291L115.563 45.373L115.978 45.6692C116.342 45.9289 116.866 46.3025 117.518 46.7535C118.169 47.2046 118.953 47.7377 119.846 48.289C120.804 48.8937 121.798 49.4413 122.821 49.9292C123.848 50.4166 124.915 50.8145 126.01 51.1184C126.265 51.1821 126.511 51.2505 126.753 51.3052L127.464 51.4464C127.889 51.5255 128.32 51.5697 128.753 51.5785C129.109 51.5898 129.465 51.5608 129.815 51.492C130.079 51.4409 130.336 51.3583 130.58 51.2459C130.739 51.1745 130.892 51.0891 131.036 50.9908L131.145 50.9133L131.172 50.8951Z" fill="white"/>
<path d="M133.068 51.2185C133.042 51.2827 133.025 51.3502 133.018 51.419C133.013 51.5041 133.027 51.5892 133.059 51.668C133.091 51.7469 133.141 51.8175 133.204 51.8746C133.331 51.9824 133.478 52.0631 133.637 52.1115C133.756 52.1525 133.833 52.1753 133.833 52.1799C133.762 52.1794 133.691 52.1671 133.624 52.1434C133.456 52.1026 133.3 52.023 133.168 51.911C133.107 51.8524 133.058 51.7816 133.026 51.7031C132.994 51.6246 132.979 51.5402 132.981 51.4554C132.988 51.4025 133.005 51.3515 133.031 51.3051L133.068 51.2185Z" fill="white"/>
<path d="M137.182 55.2964C137.182 55.2964 137.15 55.3374 137.095 55.4149C137.013 55.5201 136.938 55.6313 136.872 55.7475C136.649 56.1305 136.513 56.5585 136.476 57.0004C136.444 57.4431 136.508 57.8876 136.663 58.3035C136.711 58.4283 136.768 58.55 136.831 58.668C136.857 58.7097 136.878 58.754 136.895 58.8001L136.872 58.7728L136.813 58.6771C136.745 58.5611 136.684 58.4409 136.631 58.3172C136.462 57.8998 136.392 57.4493 136.426 57.0004C136.475 56.4135 136.703 55.8557 137.077 55.4012L137.155 55.3192C137.155 55.3192 137.182 55.2919 137.182 55.2964Z" fill="white"/>
<path d="M134.672 52.1481C135.201 51.6302 135.619 51.0101 135.902 50.3256C136.04 49.985 136.075 49.6115 136.003 49.2512C135.93 48.8909 135.754 48.5596 135.496 48.2981L132.307 51.943L135.879 56.604C136.913 54.8271 136.066 52.7176 134.672 52.1481Z" fill="#FFBE9D"/>
<path d="M136.521 55.8521C136.521 55.8521 136.521 55.8248 136.521 55.7701C136.521 55.7155 136.558 55.638 136.572 55.5287C136.622 55.2193 136.622 54.9039 136.572 54.5946C136.494 54.1202 136.316 53.6679 136.048 53.2688C135.713 52.7587 135.238 52.3555 134.681 52.107V52.1753C134.943 51.8946 135.189 51.5995 135.419 51.2914C135.67 50.961 135.858 50.5872 135.975 50.1888C136.059 49.843 136.059 49.4821 135.975 49.1363C135.904 48.8055 135.73 48.5056 135.478 48.2798L135.446 48.2524L135.419 48.2843L133.141 50.9269L132.489 51.6924L132.316 51.9019C132.275 51.9521 132.257 51.9748 132.261 51.9794L132.325 51.9111L132.507 51.7151L133.182 50.9588L135.483 48.3436H135.423C135.656 48.5599 135.815 48.8434 135.879 49.1546C135.952 49.4875 135.942 49.833 135.852 50.1615C135.741 50.5501 135.558 50.9147 135.314 51.2367C135.088 51.5422 134.846 51.8358 134.59 52.1161L134.549 52.1571H134.603C135.157 52.394 135.631 52.7845 135.97 53.2825C136.235 53.6723 136.417 54.1129 136.503 54.5764C136.559 54.8769 136.569 55.184 136.535 55.4876C136.558 55.7382 136.521 55.8521 136.521 55.8521Z" fill="#EB996E"/>
<path d="M136.69 55.5924C137.988 53.8838 139.588 52.1069 140.886 50.3938L136.69 55.5924Z" fill="#A76EF7"/>
<path d="M140.886 50.3848C140.303 51.3383 139.63 52.2339 138.877 53.0592C138.317 53.729 137.806 54.3304 137.355 54.8817C137.162 55.1467 136.939 55.3883 136.69 55.6016C137.272 54.6483 137.943 53.7527 138.695 52.9271L140.221 51.1046C140.417 50.8423 140.64 50.601 140.886 50.3848Z" fill="#160330"/>
<path d="M82.5626 174.554L81.9931 174.413C81.9931 174.413 75.6919 183.147 73.8239 182.796L78.699 163.556L85.0321 165.442C82.9818 167.966 82.0751 170.923 82.5626 174.554Z" fill="#E2CFFC"/>
<path d="M82.4943 166.868C82.4845 166.668 82.4015 166.479 82.2611 166.337C82.1207 166.195 81.9328 166.11 81.7334 166.098C81.5341 166.101 81.3435 166.18 81.2004 166.319C81.0574 166.458 80.9726 166.646 80.9634 166.845C80.9733 167.056 81.0613 167.256 81.2103 167.406C81.3593 167.556 81.5588 167.645 81.7698 167.656C81.9777 167.632 82.1682 167.528 82.3016 167.367C82.4349 167.206 82.5006 166.999 82.4851 166.79" fill="white"/>
<path d="M78.6989 163.556L80.2207 164.011L75.013 182.282C75.013 182.282 74.4207 183.042 73.842 182.796L78.6989 163.556Z" fill="#160330"/>
<path d="M81.92 174.468C81.8289 174.441 81.92 173.958 81.7195 173.42C81.5191 172.882 81.2001 172.536 81.2639 172.459C81.3277 172.381 81.8334 172.659 82.043 173.315C82.2526 173.971 82.002 174.509 81.92 174.468Z" fill="#160330"/>
<path d="M80.5759 176.272C80.4802 176.272 80.421 175.816 80.1203 175.406C79.8196 174.996 79.405 174.787 79.4323 174.695C79.4597 174.604 80.0064 174.695 80.3891 175.206C80.7718 175.716 80.667 176.295 80.5759 176.272Z" fill="#160330"/>
<path d="M77.8697 176.805C77.8697 176.718 78.3755 176.705 78.8265 177.078C79.2776 177.452 79.3733 177.94 79.2822 177.958C79.191 177.976 78.986 177.639 78.6078 177.338C78.2297 177.037 77.8561 176.901 77.8697 176.805Z" fill="#160330"/>
<path d="M102.505 215.711L102.286 216.216C102.286 216.216 109.344 223.351 108.733 225.014L91.8025 217.597L94.5089 212.066C95.5028 213.21 96.7312 214.128 98.1107 214.757C99.4903 215.386 100.989 215.711 102.505 215.711Z" fill="#E2CFFC"/>
<path d="M95.4337 214.594C95.249 214.571 95.0625 214.618 94.9101 214.725C94.7578 214.831 94.6505 214.991 94.6091 215.172C94.5804 215.356 94.6229 215.544 94.7279 215.697C94.8329 215.85 94.9925 215.957 95.174 215.997C95.3699 216.019 95.5668 215.968 95.7274 215.853C95.8879 215.739 96.0007 215.57 96.0443 215.377C96.0545 215.183 95.989 214.992 95.8615 214.845C95.7341 214.698 95.5546 214.607 95.3608 214.589" fill="white"/>
<path d="M91.8025 217.597L92.454 216.266L108.442 223.884C108.442 223.884 109.052 224.54 108.733 225.037L91.8025 217.597Z" fill="#160330"/>
<path d="M102.35 216.289C102.309 216.371 101.894 216.23 101.357 216.316C100.819 216.403 100.445 216.653 100.4 216.589C100.354 216.526 100.673 216.097 101.311 216.002C101.949 215.906 102.377 216.23 102.35 216.289Z" fill="#160330"/>
<path d="M103.776 217.806C103.776 217.893 103.343 217.874 102.906 218.102C102.468 218.33 102.231 218.663 102.149 218.621C102.067 218.58 102.222 218.093 102.765 217.824C103.307 217.555 103.812 217.724 103.776 217.806Z" fill="#160330"/>
<path d="M103.854 220.371C103.772 220.371 103.854 219.916 104.246 219.533C104.637 219.15 105.125 219.164 105.129 219.25C105.134 219.337 104.788 219.469 104.455 219.77C104.123 220.071 103.94 220.403 103.854 220.371Z" fill="#160330"/>
<path d="M94.1488 80.173C94.1178 80.0041 94.0251 79.8527 93.8887 79.7483C93.7523 79.6439 93.5819 79.5939 93.4107 79.6081H93.3652C93.2386 79.6333 93.1223 79.6951 93.0304 79.7858C92.9386 79.8765 92.8754 79.9921 92.8485 80.1183C92.8216 80.2445 92.8323 80.3758 92.8792 80.496C92.9261 80.6162 93.0072 80.7201 93.1124 80.7948C93.2177 80.8694 93.3425 80.9116 93.4715 80.9161C93.6004 80.9207 93.7279 80.8873 93.8381 80.8202C93.9484 80.7531 94.0365 80.6552 94.0917 80.5386C94.147 80.422 94.1668 80.2917 94.1488 80.1639V80.173Z" fill="#E2CFFC"/>
<path d="M94.7914 89.8731L98.8008 100.945L108.419 116.572L108.706 99.9924L105.94 87.1804H105.717L103.731 95.6504L101.093 92.461L95.0921 88.283L94.7914 89.8731Z" fill="#FAFAFA"/>
<path d="M107.476 94.3016C107.247 94.0757 107.043 93.8268 106.865 93.5589C106.683 93.3266 106.464 93.0486 106.209 92.7479C105.945 92.4174 105.639 92.1233 105.298 91.8731L105.476 91.7957C105.438 91.9503 105.391 92.1025 105.334 92.2513C104.943 93.2309 104.491 94.051 104.2 94.6661C103.908 95.2812 103.767 95.6684 103.744 95.6639C103.777 95.2912 103.884 94.9287 104.059 94.5977C104.309 93.9644 104.742 93.1215 105.12 92.1693C105.173 92.0357 105.217 91.8987 105.252 91.7592L105.293 91.5952L105.43 91.6863C105.793 91.9493 106.114 92.2658 106.382 92.6249C106.633 92.9393 106.838 93.2354 107.006 93.4815C107.198 93.7332 107.356 94.0089 107.476 94.3016Z" fill="#160330"/>
<path d="M108.419 116.572C108.336 116.316 108.276 116.052 108.241 115.784C108.132 115.237 107.986 114.508 107.813 113.629C107.444 111.807 106.902 109.305 106.287 106.54C105.672 103.774 105.107 101.309 104.692 99.4594C104.496 98.5846 104.337 97.8602 104.236 97.3134C104.166 97.0522 104.117 96.7855 104.091 96.5161C104.187 96.7683 104.265 97.0271 104.323 97.2907C104.46 97.7918 104.646 98.5208 104.874 99.423C105.33 101.245 105.918 103.719 106.533 106.485C107.148 109.251 107.667 111.77 107.995 113.597C108.155 114.508 108.282 115.256 108.351 115.771C108.39 116.036 108.413 116.304 108.419 116.572Z" fill="#160330"/>
<path d="M106.551 86.2917C103.885 88.2372 98.0581 88.5926 95.5932 88.4331C92.2718 88.2008 88.6815 86.8339 85.4922 85.9773C82.1708 85.1071 79.1136 85.1618 75.8012 85.6356C72.4889 86.1095 68.5387 88.3693 66.5886 91.0484L67.9555 92.5109C67.9555 92.5109 72.5117 88.7247 76.6669 88.1689C80.649 87.6449 83.1093 88.4924 87.784 89.7271C93.1056 91.1349 99.5389 90.8251 101.566 90.2784C103.517 89.7305 105.382 88.9131 107.107 87.8499L106.551 86.2917Z" fill="#E2CFFC"/>
<path d="M95.7482 92.511C95.8912 92.5871 96.0243 92.6804 96.1446 92.7889C96.386 92.9757 96.7323 93.2445 97.1606 93.6045C98.0126 94.3016 99.179 95.2811 100.455 96.3701L100.523 96.4293L100.332 96.4931C100.55 95.4771 100.76 94.5248 100.942 93.691L100.979 93.5225L101.106 93.6272C101.835 94.2196 102.437 94.7162 102.856 95.067C103.085 95.241 103.297 95.4362 103.489 95.6502C103.237 95.5104 102.999 95.3472 102.778 95.1627C102.323 94.8392 101.717 94.3653 100.979 93.7958L101.143 93.7366L100.564 96.5478L100.523 96.7437L100.368 96.6115L100.3 96.5523C99.0241 95.4634 97.8759 94.4656 97.0512 93.7366C96.6366 93.3721 96.3086 93.0714 96.0808 92.8618C95.9553 92.7597 95.8435 92.6417 95.7482 92.511Z" fill="#160330"/>
<path d="M63.0485 103.432C63.0758 103.255 62.1372 99.6691 62.1372 99.6691L57.5811 97.5869L58.3829 101.742C58.9013 102.256 59.4457 102.742 60.0141 103.2C60.0915 103.173 63.0485 103.432 63.0485 103.432Z" fill="#EB996E"/>
<path d="M69.8963 95.7921C69.9983 96.9899 69.7428 98.1911 69.1621 99.2438C68.5815 100.296 67.7016 101.153 66.634 101.706C65.5663 102.258 64.3588 102.482 63.1641 102.348C61.9693 102.214 60.8411 101.729 59.9221 100.954C59.003 100.179 58.3345 99.1492 58.0009 97.9942C57.6674 96.8392 57.6839 95.6113 58.0483 94.4657C58.4127 93.32 59.1086 92.3082 60.0481 91.5581C60.9876 90.8081 62.1284 90.3534 63.3263 90.2518C64.9322 90.1155 66.5264 90.6226 67.7585 91.6615C68.9905 92.7005 69.7595 94.1863 69.8963 95.7921Z" fill="#A76EF7"/>
<g opacity="0.3">
<path d="M69.8964 95.7921C69.9984 96.9899 69.743 98.1911 69.1623 99.2438C68.5816 100.296 67.7018 101.153 66.6341 101.706C65.5664 102.258 64.3589 102.482 63.1642 102.348C61.9695 102.214 60.8412 101.729 59.9222 100.954C59.0032 100.179 58.3346 99.1492 58.0011 97.9942C57.6675 96.8392 57.684 95.6113 58.0484 94.4657C58.4128 93.32 59.1087 92.3082 60.0482 91.5581C60.9877 90.8081 62.1285 90.3534 63.3264 90.2518C64.9323 90.1155 66.5265 90.6226 67.7586 91.6615C68.9906 92.7005 69.7596 94.1863 69.8964 95.7921Z" fill="black"/>
</g>
<path d="M69.8963 95.0033C69.9983 96.2011 69.7428 97.4023 69.1621 98.4549C68.5815 99.5076 67.7016 100.364 66.634 100.917C65.5663 101.47 64.3588 101.693 63.1641 101.559C61.9693 101.426 60.8411 100.941 59.9221 100.166C59.003 99.3905 58.3345 98.3604 58.0009 97.2054C57.6674 96.0504 57.6839 94.8225 58.0483 93.6768C58.4127 92.5312 59.1086 91.5194 60.0481 90.7693C60.9876 90.0192 62.1284 89.5646 63.3263 89.463C64.9322 89.3267 66.5264 89.8337 67.7585 90.8727C68.9905 91.9117 69.7595 93.3974 69.8963 95.0033Z" fill="#A76EF7"/>
<g opacity="0.3">
<path d="M59.5951 96.1331C59.4904 94.8946 59.8817 93.6652 60.6831 92.7152C61.4845 91.7651 62.6304 91.1722 63.8688 91.0667H64.0647C63.4294 91.0305 62.7934 91.1242 62.1955 91.3419C61.5975 91.5597 61.0503 91.8971 60.5871 92.3334C60.1238 92.7697 59.7544 93.2958 59.5013 93.8797C59.2481 94.4635 59.1166 95.0928 59.1148 95.7291C59.1129 96.3655 59.2407 96.9955 59.4904 97.5808C59.7402 98.1661 60.1065 98.6944 60.5672 99.1334C61.0278 99.5724 61.5731 99.913 62.1698 100.134C62.7664 100.356 63.4019 100.453 64.0374 100.42C62.903 100.366 61.8271 99.901 61.0099 99.1123C60.1927 98.3236 59.6899 97.2649 59.5951 96.1331Z" fill="black"/>
</g>
<g opacity="0.3">
<path d="M66.3745 91.7912L67.3723 90.5747L68.1332 91.2217L67.0625 92.3334L66.3745 91.7912Z" fill="white"/>
</g>
<path d="M68.5069 95.3359C68.4346 94.9601 68.3403 94.5889 68.2244 94.2242C67.8652 93.2425 67.1906 92.4077 66.3062 91.8504C65.6559 91.4439 64.9143 91.2064 64.1489 91.1595C63.3834 91.1125 62.6183 91.2576 61.9232 91.5816C61.5232 91.7652 61.153 92.0079 60.8252 92.3015C60.4773 92.6027 60.1804 92.9581 59.9458 93.354C59.4382 94.1823 59.2086 95.1511 59.2906 96.1192C59.3725 97.0872 59.7618 98.0037 60.4014 98.7348C60.7004 99.0839 61.0525 99.3837 61.4448 99.6233C61.8178 99.8592 62.2251 100.036 62.6522 100.147C63.2727 100.314 63.921 100.349 64.556 100.252C65.191 100.154 65.7987 99.926 66.3407 99.5811C66.8827 99.2362 67.3471 98.7824 67.7043 98.2484C68.0615 97.7145 68.3038 97.1121 68.4158 96.4795C68.4704 96.1006 68.5008 95.7187 68.5069 95.3359C68.569 95.7207 68.569 96.1129 68.5069 96.4977C68.4062 97.1575 68.1674 97.7886 67.8059 98.3496C67.4444 98.9106 66.9685 99.389 66.4093 99.7533C65.8501 100.118 65.2203 100.36 64.5611 100.464C63.9018 100.568 63.228 100.531 62.5838 100.357C61.6674 100.113 60.8443 99.6027 60.2192 98.8897C59.5401 98.1203 59.1272 97.1524 59.0418 96.1297C58.9564 95.107 59.2032 94.0841 59.7453 93.2127C59.9902 92.8016 60.2976 92.4311 60.6566 92.1147C61.0016 91.8075 61.3919 91.5555 61.8139 91.3675C62.5916 91.0112 63.4506 90.8697 64.3015 90.9574C65.2056 91.0532 66.0629 91.4076 66.7707 91.9781C67.4786 92.5486 68.007 93.311 68.2927 94.1741C68.429 94.5465 68.5014 94.9393 68.5069 95.3359Z" fill="#160330"/>
<path d="M61.6086 90.3789C61.6086 90.4199 61.2715 90.511 60.8068 90.8345C60.2176 91.2793 59.7025 91.8145 59.2804 92.4201C58.8414 93.0114 58.531 93.6881 58.3692 94.4066C58.2416 94.9579 58.2371 95.3178 58.2006 95.3178C58.1302 95.0074 58.1302 94.6851 58.2006 94.3747C58.3276 93.6118 58.6405 92.892 59.1119 92.2788C59.548 91.6499 60.1019 91.1115 60.743 90.6933C60.9974 90.5114 61.2968 90.4027 61.6086 90.3789Z" fill="white"/>
<path d="M62.7659 89.9692C62.7659 90.0329 62.6748 90.115 62.5199 90.1605C62.365 90.2061 62.2238 90.1605 62.2055 90.1195C62.1873 90.0785 62.3012 89.9691 62.4561 89.9281C62.611 89.8871 62.7523 89.9054 62.7659 89.9692Z" fill="white"/>
<path d="M65.8186 99.1997C65.3552 99.5104 64.8267 99.7106 64.2738 99.7848C63.7208 99.8591 63.1582 99.8054 62.6293 99.628C62.6293 99.5596 63.3719 99.6735 64.2513 99.5505C65.1306 99.4275 65.7913 99.1359 65.8186 99.1997Z" fill="white"/>
<path d="M68.5204 97.6641C68.4658 97.6277 68.566 97.3634 68.6526 97.0308C68.7391 96.6982 68.7756 96.4157 68.8439 96.4112C68.9123 96.4066 68.9806 96.7164 68.8804 97.09C68.7801 97.4637 68.5751 97.7006 68.5204 97.6641Z" fill="white"/>
<g opacity="0.3">
<path d="M64.4656 93.9648V98.1656H63.4906V94.744H62.6522V93.9648H64.4656Z" fill="black"/>
</g>
<path d="M63.331 102.899C62.4608 102.539 59.358 102.161 59.358 102.161L59.6041 100.73C59.6041 100.73 61.3445 100.211 61.8138 99.4546C61.9468 99.2151 62.0196 98.947 62.0259 98.6731C62.0323 98.3993 61.972 98.1281 61.8503 97.8827L60.8889 98.1561C61.3719 97.664 61.0939 96.7027 61.0939 96.7027L60.0232 96.9305C60.1174 96.8603 60.1957 96.771 60.2529 96.6684C60.3102 96.5658 60.3451 96.4523 60.3554 96.3353C60.3657 96.2183 60.3512 96.1005 60.3128 95.9894C60.2744 95.8784 60.213 95.7768 60.1326 95.6912L59.3034 95.96C59.8046 95.4133 58.9115 94.8164 58.9115 94.8164C58.9115 94.8164 55.139 97.7597 54.893 98.1652C54.647 98.5707 55.1891 99.6505 55.1891 99.6505C54.8881 99.9995 54.695 100.428 54.6333 100.885C54.6105 101.514 55.4078 101.746 55.4078 101.746C55.3598 102.08 55.3815 102.42 55.4716 102.744C55.6265 103.264 58.1324 104.712 58.1324 104.712L61.4265 108.034L64.7389 103.505C64.7389 103.505 64.2013 103.259 63.331 102.899Z" fill="#FFBE9D"/>
<path d="M61.8 97.9285C61.55 98.0901 61.2718 98.2029 60.9799 98.2611C60.3016 98.4304 59.635 98.6435 58.9843 98.8989C58.6385 99.0479 58.3186 99.2509 58.0366 99.5003C57.7769 99.7373 57.581 99.956 57.3759 100.175C57.0023 100.576 56.7062 100.758 56.688 100.731C56.6697 100.703 56.9158 100.489 57.2529 100.065C57.449 99.8111 57.6605 99.5692 57.8862 99.3409C58.1776 99.0639 58.5153 98.8403 58.884 98.6802C59.5486 98.42 60.2367 98.2246 60.9389 98.097C61.2206 98.0164 61.5087 97.96 61.8 97.9285Z" fill="#EB996E"/>
<path d="M61.1622 102.485C61.1622 102.544 60.3786 102.371 59.3398 102.416H59.1803L59.2259 102.261C59.2851 102.052 59.3443 101.806 59.3899 101.587C59.4546 101.273 59.4972 100.955 59.5175 100.635V100.539H59.6177C59.9809 100.499 60.335 100.399 60.6656 100.243C60.9208 100.138 61.0666 100.061 61.0802 100.084C61.0939 100.106 60.9709 100.216 60.7294 100.362C60.392 100.57 60.015 100.707 59.6222 100.762L59.727 100.658C59.7161 100.99 59.678 101.32 59.6131 101.646C59.5679 101.881 59.5086 102.112 59.4354 102.339L59.3215 102.189C59.9498 102.142 60.5802 102.244 61.1622 102.485Z" fill="#EB996E"/>
<path d="M56.246 99.2775C56.3977 99.0541 56.5802 98.8531 56.7882 98.6807L57.426 98.0519C57.5499 97.9177 57.689 97.7984 57.8406 97.6965C58.006 97.5926 58.1797 97.5027 58.36 97.4277C58.9824 97.1859 59.6241 96.9969 60.2782 96.8628C60.5434 96.7839 60.8173 96.738 61.0937 96.7261C60.8549 96.8671 60.5949 96.9686 60.3237 97.0268C59.8408 97.1817 59.1574 97.3594 58.4557 97.6464C58.2866 97.7146 58.1235 97.7969 57.9682 97.8925C57.8265 97.9844 57.6952 98.0913 57.5764 98.2114L56.9066 98.7991C56.71 98.9889 56.4876 99.15 56.246 99.2775Z" fill="#EB996E"/>
<path d="M55.6173 98.311C55.5945 98.2836 55.8041 98.0695 56.1595 97.746L56.7882 97.1901L57.1664 96.8621L57.3669 96.6935L57.4717 96.607C57.5132 96.5757 57.5574 96.5483 57.6038 96.5249C58.1775 96.2664 58.7681 96.0472 59.3716 95.8689C59.6141 95.7693 59.871 95.7093 60.1325 95.6912C59.914 95.832 59.6781 95.9438 59.4308 96.0238C58.9752 96.2106 58.3555 96.4338 57.7177 96.7345L57.6175 96.7938L57.5127 96.8758L57.3122 97.0443L56.9249 97.3587L56.2643 97.8781C56.0706 98.0528 55.8527 98.1986 55.6173 98.311Z" fill="#EB996E"/>
<path d="M69.5957 72.0586L69.7643 71.6394L70.024 72.0085C70.2325 72.3054 70.5219 72.5363 70.8578 72.6737L71.2769 72.8468L70.9079 73.1065C70.6098 73.3119 70.3785 73.6002 70.2427 73.9357L70.0695 74.3549L69.8098 73.9858C69.6013 73.6889 69.3119 73.458 68.9761 73.3206L68.5569 73.1475L68.9305 72.8878C69.2261 72.6798 69.4567 72.3923 69.5957 72.0586Z" fill="#A76EF7"/>
<path d="M126.393 120.213L126.562 119.794L126.821 120.163C127.03 120.46 127.319 120.691 127.655 120.828L128.074 121.001L127.701 121.261C127.405 121.471 127.174 121.76 127.035 122.095L126.867 122.509L126.607 122.14C126.399 121.843 126.109 121.612 125.773 121.475L125.354 121.302L125.728 121.042C126.023 120.834 126.254 120.547 126.393 120.213Z" fill="#A76EF7"/>
<path d="M136.193 100.776L136.362 100.362L136.622 100.731C136.831 101.027 137.12 101.257 137.455 101.396L137.874 101.569L137.505 101.829C137.209 102.035 136.978 102.323 136.84 102.658L136.667 103.077L136.407 102.708C136.199 102.411 135.909 102.18 135.574 102.043L135.154 101.87L135.528 101.61C135.825 101.401 136.056 101.112 136.193 100.776Z" fill="#A76EF7"/>
<path d="M53.2618 69.7671L53.362 69.5256L53.5124 69.7398C53.6325 69.9129 53.8003 70.0474 53.9954 70.1271L54.2368 70.2273L54.0227 70.3776C53.8496 70.4978 53.7151 70.6655 53.6354 70.8606L53.5352 71.1021L53.3848 70.8879C53.2647 70.7148 53.0969 70.5803 52.9019 70.5007L52.6604 70.4004L52.8745 70.2501C53.0476 70.1299 53.1822 69.9622 53.2618 69.7671Z" fill="#A76EF7"/>
<path d="M126.981 105.998L127.081 105.756L127.231 105.97C127.351 106.144 127.519 106.278 127.714 106.358L127.96 106.458L127.742 106.608C127.571 106.73 127.438 106.897 127.359 107.091L127.259 107.333L127.108 107.118C126.986 106.947 126.819 106.813 126.625 106.731L126.379 106.635L126.593 106.481C126.768 106.362 126.902 106.193 126.981 105.998Z" fill="#A76EF7"/>
<path d="M60.9389 56.9412L61.3443 56.3079L61.6906 56.9867C61.9684 57.528 62.3953 57.9786 62.9208 58.2852L63.5769 58.668L62.9026 59.0142C62.3607 59.293 61.9089 59.7195 61.5995 60.2444L61.2168 60.9005L60.8705 60.2262C60.5934 59.6832 60.1665 59.231 59.6403 58.9231L58.9843 58.5404L59.6631 58.1941C60.2002 57.9081 60.6432 57.473 60.9389 56.9412Z" fill="#A76EF7"/>
</svg>
