<svg xmlns="http://www.w3.org/2000/svg" xmlns:xlink="http://www.w3.org/1999/xlink" width="500" zoomAndPan="magnify" viewBox="0 0 375 374.999991" height="500" preserveAspectRatio="xMidYMid meet" version="1.0"><defs><g/><clipPath id="c1044e8339"><path d="M 128 144 L 215 144 L 215 260 L 128 260 Z M 128 144 " clip-rule="nonzero"/></clipPath><clipPath id="50374c4e8d"><path d="M 188.359375 144.550781 L 214.792969 160.503906 L 155.058594 259.488281 L 128.621094 243.535156 Z M 188.359375 144.550781 " clip-rule="nonzero"/></clipPath><clipPath id="976eeed231"><path d="M 131 160 L 190 160 L 190 219 L 131 219 Z M 131 160 " clip-rule="nonzero"/></clipPath><clipPath id="ac2b541a5c"><path d="M 153.527344 160.316406 L 189.546875 182.054688 L 167.398438 218.753906 L 131.378906 197.015625 Z M 153.527344 160.316406 " clip-rule="nonzero"/></clipPath><clipPath id="8a5edad653"><path d="M 173 164 L 230 164 L 230 219 L 173 219 Z M 173 164 " clip-rule="nonzero"/></clipPath><clipPath id="5bcd465ed0"><path d="M 193.296875 164.234375 L 229.316406 185.972656 L 209.53125 218.753906 L 173.507812 197.015625 Z M 193.296875 164.234375 " clip-rule="nonzero"/></clipPath></defs><rect x="-37.5" width="450" fill="#ffffff" y="-37.499999" height="449.999989" fill-opacity="1"/><rect x="-37.5" width="450" fill="#ffffff" y="-37.499999" height="449.999989" fill-opacity="1"/><g fill="#3d3b3a" fill-opacity="1"><g transform="translate(88.537965, 199.988733)"><g><path d="M 71.59375 -111.875 C 79.332031 -111.875 85.664062 -111.316406 90.59375 -110.203125 C 95.519531 -109.085938 100.738281 -107.125 106.25 -104.3125 C 106.945312 -103.84375 107.382812 -103.460938 107.5625 -103.171875 C 107.738281 -102.878906 107.882812 -101.96875 108 -100.4375 L 110.125 -80.390625 C 110.125 -80.035156 109.800781 -79.828125 109.15625 -79.765625 C 108.507812 -79.710938 108.125 -79.863281 108 -80.21875 C 105.425781 -89.945312 101.144531 -97.242188 95.15625 -102.109375 C 89.175781 -106.972656 81.320312 -109.40625 71.59375 -109.40625 C 61.269531 -109.40625 52.207031 -107.234375 44.40625 -102.890625 C 36.613281 -98.554688 30.578125 -92.375 26.296875 -84.34375 C 22.015625 -76.3125 19.875 -66.960938 19.875 -56.296875 C 19.875 -46.328125 22.25 -37.03125 27 -28.40625 C 31.75 -19.789062 38.140625 -12.929688 46.171875 -7.828125 C 54.203125 -2.722656 62.796875 -0.171875 71.953125 -0.171875 C 91.410156 -0.171875 103.835938 -9.726562 109.234375 -28.84375 C 109.234375 -29.082031 109.53125 -29.203125 110.125 -29.203125 C 110.9375 -29.203125 111.34375 -29.023438 111.34375 -28.671875 L 109.9375 -10.03125 C 109.820312 -8.625 109.644531 -7.742188 109.40625 -7.390625 C 109.175781 -7.035156 108.707031 -6.625 108 -6.15625 C 101.90625 -2.988281 96.191406 -0.789062 90.859375 0.4375 C 85.523438 1.664062 79.160156 2.28125 71.765625 2.28125 C 59.566406 2.28125 48.6875 -0.148438 39.125 -5.015625 C 29.570312 -9.878906 22.097656 -16.738281 16.703125 -25.59375 C 11.316406 -34.445312 8.625 -44.617188 8.625 -56.109375 C 8.625 -67.140625 11.316406 -76.875 16.703125 -85.3125 C 22.097656 -93.757812 29.570312 -100.296875 39.125 -104.921875 C 48.6875 -109.554688 59.507812 -111.875 71.59375 -111.875 Z M 71.59375 -111.875 "/></g></g></g><g fill="#3d3b3a" fill-opacity="1"><g transform="translate(141.3413, 285.891874)"><g><path d="M 141.953125 -2.109375 C 142.304688 -2.109375 142.484375 -1.753906 142.484375 -1.046875 C 142.484375 -0.347656 142.304688 0 141.953125 0 C 138.316406 0 135.445312 -0.0546875 133.34375 -0.171875 L 121.546875 -0.359375 L 110.640625 -0.171875 C 108.878906 -0.0546875 106.414062 0 103.25 0 C 103.019531 0 102.90625 -0.347656 102.90625 -1.046875 C 102.90625 -1.753906 103.019531 -2.109375 103.25 -2.109375 C 107.351562 -2.109375 110.375 -2.429688 112.3125 -3.078125 C 114.25 -3.722656 115.539062 -4.863281 116.1875 -6.5 C 116.832031 -8.144531 117.035156 -10.726562 116.796875 -14.25 L 113.8125 -96.046875 L 72.65625 -1.234375 C 72.414062 -0.765625 71.941406 -0.53125 71.234375 -0.53125 C 70.648438 -0.53125 70.125 -0.765625 69.65625 -1.234375 L 26.734375 -95.34375 L 26.5625 -95.6875 L 25.15625 -18.296875 C 25.039062 -12.191406 26.035156 -7.96875 28.140625 -5.625 C 30.253906 -3.28125 34.1875 -2.109375 39.9375 -2.109375 C 40.164062 -2.109375 40.28125 -1.753906 40.28125 -1.046875 C 40.28125 -0.347656 40.164062 0 39.9375 0 C 36.644531 0 34.117188 -0.0546875 32.359375 -0.171875 L 22.875 -0.359375 L 14.25 -0.171875 C 12.726562 -0.0546875 10.441406 0 7.390625 0 C 7.148438 0 7.03125 -0.347656 7.03125 -1.046875 C 7.03125 -1.753906 7.148438 -2.109375 7.390625 -2.109375 C 12.316406 -2.109375 15.804688 -3.3125 17.859375 -5.71875 C 19.910156 -8.125 20.992188 -12.316406 21.109375 -18.296875 L 22.875 -101.671875 C 19.238281 -105.773438 14.488281 -107.828125 8.625 -107.828125 C 8.382812 -107.828125 8.265625 -108.175781 8.265625 -108.875 C 8.265625 -109.582031 8.382812 -109.9375 8.625 -109.9375 L 14.59375 -109.765625 C 15.769531 -109.648438 17.296875 -109.59375 19.171875 -109.59375 C 21.046875 -109.59375 22.628906 -109.648438 23.921875 -109.765625 C 25.210938 -109.878906 26.207031 -109.9375 26.90625 -109.9375 C 28.550781 -109.9375 29.84375 -109.378906 30.78125 -108.265625 C 31.71875 -107.148438 33.125 -104.660156 35 -100.796875 L 74.578125 -15.296875 L 113.984375 -105.546875 C 114.566406 -106.835938 115.359375 -107.890625 116.359375 -108.703125 C 117.359375 -109.523438 118.328125 -109.9375 119.265625 -109.9375 C 119.734375 -109.9375 120.492188 -109.878906 121.546875 -109.765625 C 122.609375 -109.648438 124.078125 -109.59375 125.953125 -109.59375 L 133.859375 -109.765625 C 135.035156 -109.878906 136.851562 -109.9375 139.3125 -109.9375 C 139.550781 -109.9375 139.671875 -109.582031 139.671875 -108.875 C 139.671875 -108.175781 139.550781 -107.828125 139.3125 -107.828125 C 133.21875 -107.828125 128.910156 -107.035156 126.390625 -105.453125 C 123.867188 -103.867188 122.664062 -100.734375 122.78125 -96.046875 L 126.125 -14.25 C 126.238281 -10.613281 126.675781 -7.972656 127.4375 -6.328125 C 128.207031 -4.691406 129.675781 -3.578125 131.84375 -2.984375 C 134.007812 -2.398438 137.378906 -2.109375 141.953125 -2.109375 Z M 141.953125 -2.109375 "/></g></g></g><g clip-path="url(#c1044e8339)"><g clip-path="url(#50374c4e8d)"><path fill="#ffffff" d="M 188.359375 144.550781 L 214.792969 160.503906 L 155.03125 259.53125 L 128.597656 243.578125 Z M 188.359375 144.550781 " fill-opacity="1" fill-rule="nonzero"/></g></g><g clip-path="url(#976eeed231)"><g clip-path="url(#ac2b541a5c)"><path fill="#ffffff" d="M 153.527344 160.316406 L 189.546875 182.054688 L 167.382812 218.777344 L 131.363281 197.039062 Z M 153.527344 160.316406 " fill-opacity="1" fill-rule="nonzero"/></g></g><g clip-path="url(#8a5edad653)"><g clip-path="url(#5bcd465ed0)"><path fill="#ffffff" d="M 193.296875 164.234375 L 229.28125 185.949219 L 209.496094 218.734375 L 173.507812 197.015625 Z M 193.296875 164.234375 " fill-opacity="1" fill-rule="nonzero"/></g></g><path stroke-linecap="butt" transform="matrix(0.943636, -1.343592, 1.343592, 0.943636, 117.674543, 272.598352)" fill="none" stroke-linejoin="miter" d="M -0.00000037767 1.001039 L 116.887466 0.999281 " stroke="#3d3b3a" stroke-width="2" stroke-opacity="1" stroke-miterlimit="4"/></svg>