<svg width="72" height="72" viewBox="0 0 72 72" fill="none" xmlns="http://www.w3.org/2000/svg">
<path d="M63.5231 28.9181C62.4628 27.81 61.3659 26.6681 60.9525 25.6641C60.57 24.7444 60.5475 23.22 60.525 21.7434C60.4828 18.9984 60.4378 15.8878 58.275 13.725C56.1122 11.5622 53.0016 11.5172 50.2566 11.475C48.78 11.4525 47.2556 11.43 46.3359 11.0475C45.3347 10.6341 44.19 9.53719 43.0819 8.47687C41.1412 6.61219 38.9362 4.5 36 4.5C33.0638 4.5 30.8616 6.61219 28.9181 8.47687C27.81 9.53719 26.6681 10.6341 25.6641 11.0475C24.75 11.43 23.22 11.4525 21.7434 11.475C18.9984 11.5172 15.8878 11.5622 13.725 13.725C11.5622 15.8878 11.5312 18.9984 11.475 21.7434C11.4525 23.22 11.43 24.7444 11.0475 25.6641C10.6341 26.6653 9.53719 27.81 8.47687 28.9181C6.61219 30.8587 4.5 33.0638 4.5 36C4.5 38.9362 6.61219 41.1384 8.47687 43.0819C9.53719 44.19 10.6341 45.3319 11.0475 46.3359C11.43 47.2556 11.4525 48.78 11.475 50.2566C11.5172 53.0016 11.5622 56.1122 13.725 58.275C15.8878 60.4378 18.9984 60.4828 21.7434 60.525C23.22 60.5475 24.7444 60.57 25.6641 60.9525C26.6653 61.3659 27.81 62.4628 28.9181 63.5231C30.8587 65.3878 33.0638 67.5 36 67.5C38.9362 67.5 41.1384 65.3878 43.0819 63.5231C44.19 62.4628 45.3319 61.3659 46.3359 60.9525C47.2556 60.57 48.78 60.5475 50.2566 60.525C53.0016 60.4828 56.1122 60.4378 58.275 58.275C60.4378 56.1122 60.4828 53.0016 60.525 50.2566C60.5475 48.78 60.57 47.2556 60.9525 46.3359C61.3659 45.3347 62.4628 44.19 63.5231 43.0819C65.3878 41.1412 67.5 38.9362 67.5 36C67.5 33.0638 65.3878 30.8616 63.5231 28.9181ZM33.75 22.5C33.75 21.9033 33.9871 21.331 34.409 20.909C34.831 20.4871 35.4033 20.25 36 20.25C36.5967 20.25 37.169 20.4871 37.591 20.909C38.0129 21.331 38.25 21.9033 38.25 22.5V38.25C38.25 38.8467 38.0129 39.419 37.591 39.841C37.169 40.2629 36.5967 40.5 36 40.5C35.4033 40.5 34.831 40.2629 34.409 39.841C33.9871 39.419 33.75 38.8467 33.75 38.25V22.5ZM36 51.75C35.3325 51.75 34.68 51.5521 34.125 51.1812C33.5699 50.8104 33.1374 50.2833 32.8819 49.6666C32.6265 49.0499 32.5596 48.3713 32.6898 47.7166C32.8201 47.0619 33.1415 46.4605 33.6135 45.9885C34.0855 45.5165 34.6869 45.1951 35.3416 45.0648C35.9963 44.9346 36.6749 45.0015 37.2916 45.2569C37.9083 45.5124 38.4354 45.9449 38.8062 46.5C39.1771 47.055 39.375 47.7075 39.375 48.375C39.375 49.2701 39.0194 50.1285 38.3865 50.7615C37.7535 51.3944 36.8951 51.75 36 51.75Z" fill="#1745CF"/>
</svg>
