<svg width="10" height="18" viewBox="0 0 10 18" fill="none" xmlns="http://www.w3.org/2000/svg">
<path d="M9.03068 9.53068L1.53068 17.0307C1.46099 17.1004 1.37827 17.1556 1.28722 17.1933C1.19618 17.2311 1.0986 17.2505 1.00005 17.2505C0.901505 17.2505 0.803923 17.2311 0.712878 17.1933C0.621834 17.1556 0.539108 17.1004 0.469425 17.0307C0.399743 16.961 0.344468 16.8783 0.306756 16.7872C0.269044 16.6962 0.249634 16.5986 0.249634 16.5001C0.249634 16.4015 0.269044 16.3039 0.306756 16.2129C0.344468 16.1218 0.399743 16.0391 0.469425 15.9694L7.43974 9.00005L0.469425 2.03068C0.328695 1.88995 0.249634 1.69907 0.249634 1.50005C0.249634 1.30103 0.328695 1.11016 0.469425 0.969426C0.610156 0.828695 0.801028 0.749634 1.00005 0.749634C1.19907 0.749634 1.38995 0.828695 1.53068 0.969426L9.03068 8.46943C9.10041 8.53908 9.15573 8.6218 9.19347 8.71285C9.23121 8.80389 9.25064 8.90149 9.25064 9.00005C9.25064 9.09861 9.23121 9.19621 9.19347 9.28726C9.15573 9.3783 9.10041 9.46102 9.03068 9.53068Z" fill="white"/>
</svg>
