<svg width="32" height="32" viewBox="0 0 32 32" fill="none" xmlns="http://www.w3.org/2000/svg">
<g opacity="0.8">
<rect width="32" height="32" rx="16" fill="#6D0DF2"/>
<path d="M23.2069 16.5L17 10.2931C16.9075 10.1999 16.7973 10.1259 16.676 10.0756C16.5546 10.0253 16.4245 9.99959 16.2931 10H10.5C10.3674 10 10.2402 10.0527 10.1465 10.1465C10.0527 10.2402 10 10.3674 10 10.5V16.2931C9.99959 16.4245 10.0253 16.5546 10.0756 16.676C10.1259 16.7973 10.1999 16.9075 10.2931 17L16.5 23.2069C16.5929 23.2998 16.7031 23.3734 16.8245 23.4237C16.9458 23.474 17.0759 23.4999 17.2072 23.4999C17.3385 23.4999 17.4686 23.474 17.5899 23.4237C17.7113 23.3734 17.8215 23.2998 17.9144 23.2069L23.2069 17.9144C23.2998 17.8215 23.3734 17.7113 23.4237 17.5899C23.474 17.4686 23.4999 17.3385 23.4999 17.2072C23.4999 17.0759 23.474 16.9458 23.4237 16.8245C23.3734 16.7031 23.2998 16.5929 23.2069 16.5ZM17.2069 22.5L11 16.2931V11H16.2931L22.5 17.2069L17.2069 22.5ZM14 13.25C14 13.3983 13.956 13.5433 13.8736 13.6667C13.7912 13.79 13.6741 13.8861 13.537 13.9429C13.4 13.9997 13.2492 14.0145 13.1037 13.9856C12.9582 13.9567 12.8246 13.8852 12.7197 13.7803C12.6148 13.6754 12.5434 13.5418 12.5144 13.3963C12.4855 13.2508 12.5003 13.1 12.5571 12.963C12.6139 12.8259 12.71 12.7088 12.8333 12.6264C12.9567 12.544 13.1017 12.5 13.25 12.5C13.4489 12.5 13.6397 12.579 13.7803 12.7197C13.921 12.8603 14 13.0511 14 13.25Z" fill="white"/>
</g>
</svg>
