<svg width="25" height="24" viewBox="0 0 25 24" fill="none" xmlns="http://www.w3.org/2000/svg">
<path d="M20.6403 9.72831L13.1403 2.65206C13.1366 2.64886 13.1332 2.64541 13.13 2.64175C12.8539 2.39062 12.494 2.25146 12.1208 2.25146C11.7475 2.25146 11.3877 2.39062 11.1116 2.64175L11.1013 2.65206L3.60969 9.72831C3.45687 9.86883 3.33489 10.0395 3.25146 10.2296C3.16803 10.4197 3.12497 10.6251 3.125 10.8327V19.4999C3.125 19.8977 3.28304 20.2792 3.56434 20.5605C3.84564 20.8418 4.22718 20.9999 4.625 20.9999H9.125C9.52282 20.9999 9.90436 20.8418 10.1857 20.5605C10.467 20.2792 10.625 19.8977 10.625 19.4999V14.9999H13.625V19.4999C13.625 19.8977 13.783 20.2792 14.0643 20.5605C14.3456 20.8418 14.7272 20.9999 15.125 20.9999H19.625C20.0228 20.9999 20.4044 20.8418 20.6857 20.5605C20.967 20.2792 21.125 19.8977 21.125 19.4999V10.8327C21.125 10.6251 21.082 10.4197 20.9985 10.2296C20.9151 10.0395 20.7931 9.86883 20.6403 9.72831ZM19.625 19.4999H15.125V14.9999C15.125 14.602 14.967 14.2205 14.6857 13.9392C14.4044 13.6579 14.0228 13.4999 13.625 13.4999H10.625C10.2272 13.4999 9.84564 13.6579 9.56434 13.9392C9.28304 14.2205 9.125 14.602 9.125 14.9999V19.4999H4.625V10.8327L4.63531 10.8233L12.125 3.74987L19.6156 10.8214L19.6259 10.8308L19.625 19.4999Z" fill="#A1A1AA"/>
</svg>
