<svg width="25" height="24" viewBox="0 0 25 24" fill="none" xmlns="http://www.w3.org/2000/svg">
<path d="M20.6403 9.72855L13.1403 2.6523C13.1366 2.6491 13.1332 2.64566 13.13 2.64199C12.8539 2.39086 12.494 2.25171 12.1208 2.25171C11.7475 2.25171 11.3877 2.39086 11.1116 2.64199L11.1013 2.6523L3.60969 9.72855C3.45687 9.86907 3.33489 10.0398 3.25146 10.2299C3.16803 10.42 3.12497 10.6253 3.125 10.8329V19.5001C3.125 19.8979 3.28304 20.2795 3.56434 20.5608C3.84564 20.8421 4.22718 21.0001 4.625 21.0001H9.125C9.52282 21.0001 9.90436 20.8421 10.1857 20.5608C10.467 20.2795 10.625 19.8979 10.625 19.5001V15.0001H13.625V19.5001C13.625 19.8979 13.783 20.2795 14.0643 20.5608C14.3456 20.8421 14.7272 21.0001 15.125 21.0001H19.625C20.0228 21.0001 20.4044 20.8421 20.6857 20.5608C20.967 20.2795 21.125 19.8979 21.125 19.5001V10.8329C21.125 10.6253 21.082 10.42 20.9985 10.2299C20.9151 10.0398 20.7931 9.86907 20.6403 9.72855ZM19.625 19.5001H15.125V15.0001C15.125 14.6023 14.967 14.2208 14.6857 13.9395C14.4044 13.6582 14.0228 13.5001 13.625 13.5001H10.625C10.2272 13.5001 9.84564 13.6582 9.56434 13.9395C9.28304 14.2208 9.125 14.6023 9.125 15.0001V19.5001H4.625V10.8329L4.63531 10.8236L12.125 3.75011L19.6156 10.8217L19.6259 10.8311L19.625 19.5001Z" fill="#6D0DF2"/>
</svg>
