<svg width="25" height="24" viewBox="0 0 25 24" fill="none" xmlns="http://www.w3.org/2000/svg">
<path d="M19.375 4.5H13.375V1.5C13.375 1.30109 13.296 1.11032 13.1553 0.96967C13.0147 0.829018 12.8239 0.75 12.625 0.75C12.4261 0.75 12.2353 0.829018 12.0947 0.96967C11.954 1.11032 11.875 1.30109 11.875 1.5V4.5H5.875C5.07935 4.5 4.31629 4.81607 3.75368 5.37868C3.19107 5.94129 2.875 6.70435 2.875 7.5V18C2.875 18.7956 3.19107 19.5587 3.75368 20.1213C4.31629 20.6839 5.07935 21 5.875 21H19.375C20.1706 21 20.9337 20.6839 21.4963 20.1213C22.0589 19.5587 22.375 18.7956 22.375 18V7.5C22.375 6.70435 22.0589 5.94129 21.4963 5.37868C20.9337 4.81607 20.1706 4.5 19.375 4.5ZM20.875 18C20.875 18.3978 20.717 18.7794 20.4357 19.0607C20.1544 19.342 19.7728 19.5 19.375 19.5H5.875C5.47718 19.5 5.09564 19.342 4.81434 19.0607C4.53304 18.7794 4.375 18.3978 4.375 18V7.5C4.375 7.10218 4.53304 6.72064 4.81434 6.43934C5.09564 6.15804 5.47718 6 5.875 6H19.375C19.7728 6 20.1544 6.15804 20.4357 6.43934C20.717 6.72064 20.875 7.10218 20.875 7.5V18ZM16 12.75H9.25C8.55381 12.75 7.88613 13.0266 7.39384 13.5188C6.90156 14.0111 6.625 14.6788 6.625 15.375C6.625 16.0712 6.90156 16.7389 7.39384 17.2312C7.88613 17.7234 8.55381 18 9.25 18H16C16.6962 18 17.3639 17.7234 17.8562 17.2312C18.3484 16.7389 18.625 16.0712 18.625 15.375C18.625 14.6788 18.3484 14.0111 17.8562 13.5188C17.3639 13.0266 16.6962 12.75 16 12.75ZM13.375 14.25V16.5H11.875V14.25H13.375ZM8.125 15.375C8.125 15.0766 8.24353 14.7905 8.4545 14.5795C8.66548 14.3685 8.95163 14.25 9.25 14.25H10.375V16.5H9.25C8.95163 16.5 8.66548 16.3815 8.4545 16.1705C8.24353 15.9595 8.125 15.6734 8.125 15.375ZM16 16.5H14.875V14.25H16C16.2984 14.25 16.5845 14.3685 16.7955 14.5795C17.0065 14.7905 17.125 15.0766 17.125 15.375C17.125 15.6734 17.0065 15.9595 16.7955 16.1705C16.5845 16.3815 16.2984 16.5 16 16.5ZM7.375 10.125C7.375 9.9025 7.44098 9.68499 7.5646 9.49998C7.68821 9.31498 7.86391 9.17078 8.06948 9.08564C8.27505 9.00049 8.50125 8.97821 8.71948 9.02162C8.93771 9.06502 9.13816 9.17217 9.2955 9.3295C9.45283 9.48684 9.55998 9.68729 9.60338 9.90552C9.64679 10.1238 9.62451 10.35 9.53936 10.5555C9.45422 10.7611 9.31002 10.9368 9.12502 11.0604C8.94001 11.184 8.7225 11.25 8.5 11.25C8.20163 11.25 7.91548 11.1315 7.7045 10.9205C7.49353 10.7095 7.375 10.4234 7.375 10.125ZM15.625 10.125C15.625 9.9025 15.691 9.68499 15.8146 9.49998C15.9382 9.31498 16.1139 9.17078 16.3195 9.08564C16.525 9.00049 16.7512 8.97821 16.9695 9.02162C17.1877 9.06502 17.3882 9.17217 17.5455 9.3295C17.7028 9.48684 17.81 9.68729 17.8534 9.90552C17.8968 10.1238 17.8745 10.35 17.7894 10.5555C17.7042 10.7611 17.56 10.9368 17.375 11.0604C17.19 11.184 16.9725 11.25 16.75 11.25C16.4516 11.25 16.1655 11.1315 15.9545 10.9205C15.7435 10.7095 15.625 10.4234 15.625 10.125Z" fill="#A1A1AA"/>
</svg>
