<svg width="36" height="36" viewBox="0 0 36 36" fill="none" xmlns="http://www.w3.org/2000/svg">
<rect x="0.75" y="0.75" width="34.5" height="34.5" rx="7.25" stroke="#6D0DF2" stroke-width="1.5"/>
<path d="M18.75 17.9998C18.75 18.1481 18.706 18.2931 18.6236 18.4165C18.5412 18.5398 18.4241 18.6359 18.287 18.6927C18.15 18.7495 17.9992 18.7643 17.8537 18.7354C17.7082 18.7064 17.5746 18.635 17.4697 18.5301C17.3648 18.4252 17.2933 18.2916 17.2644 18.1461C17.2355 18.0006 17.2503 17.8498 17.3071 17.7128C17.3639 17.5757 17.46 17.4586 17.5833 17.3762C17.7067 17.2938 17.8517 17.2498 18 17.2498C18.1989 17.2498 18.3897 17.3288 18.5303 17.4694C18.671 17.6101 18.75 17.8009 18.75 17.9998ZM15.25 17.2498C15.1017 17.2498 14.9567 17.2938 14.8333 17.3762C14.71 17.4586 14.6139 17.5757 14.5571 17.7128C14.5003 17.8498 14.4855 18.0006 14.5144 18.1461C14.5433 18.2916 14.6148 18.4252 14.7197 18.5301C14.8246 18.635 14.9582 18.7064 15.1037 18.7354C15.2492 18.7643 15.4 18.7495 15.537 18.6927C15.6741 18.6359 15.7912 18.5398 15.8736 18.4165C15.956 18.2931 16 18.1481 16 17.9998C16 17.8009 15.921 17.6101 15.7803 17.4694C15.6397 17.3288 15.4489 17.2498 15.25 17.2498ZM20.75 17.2498C20.6017 17.2498 20.4567 17.2938 20.3333 17.3762C20.21 17.4586 20.1139 17.5757 20.0571 17.7128C20.0003 17.8498 19.9855 18.0006 20.0144 18.1461C20.0433 18.2916 20.1148 18.4252 20.2197 18.5301C20.3246 18.635 20.4582 18.7064 20.6037 18.7354C20.7492 18.7643 20.9 18.7495 21.037 18.6927C21.1741 18.6359 21.2912 18.5398 21.3736 18.4165C21.456 18.2931 21.5 18.1481 21.5 17.9998C21.5 17.8009 21.421 17.6101 21.2803 17.4694C21.1397 17.3288 20.9489 17.2498 20.75 17.2498ZM24.5 17.9998C24.5002 19.122 24.2099 20.2251 23.6574 21.2019C23.1048 22.1786 22.3087 22.9956 21.3467 23.5734C20.3847 24.1512 19.2894 24.4701 18.1676 24.499C17.0457 24.528 15.9355 24.266 14.945 23.7385L12.8169 24.4479C12.6407 24.5067 12.4516 24.5152 12.2708 24.4725C12.0901 24.4299 11.9247 24.3377 11.7934 24.2064C11.6621 24.075 11.5699 23.9097 11.5272 23.7289C11.4846 23.5482 11.4931 23.3591 11.5519 23.1829L12.2612 21.0548C11.7976 20.183 11.5386 19.2171 11.504 18.2304C11.4694 17.2436 11.66 16.2619 12.0614 15.3599C12.4628 14.4578 13.0645 13.659 13.8207 13.0241C14.5769 12.3893 15.4678 11.9351 16.4258 11.6959C17.3838 11.4568 18.3836 11.4391 19.3495 11.6441C20.3153 11.8491 21.2218 12.2714 22 12.879C22.7783 13.4866 23.4079 14.2636 23.8411 15.1508C24.2743 16.0381 24.4996 17.0124 24.5 17.9998ZM23.5 17.9998C23.4998 17.1561 23.3054 16.3238 22.9321 15.5672C22.5587 14.8107 22.0163 14.1502 21.3468 13.6368C20.6773 13.1234 19.8986 12.7709 19.0711 12.6066C18.2436 12.4423 17.3894 12.4706 16.5745 12.6893C15.7597 12.9079 15.0061 13.3111 14.372 13.8676C13.7379 14.4242 13.2403 15.1191 12.9178 15.8987C12.5952 16.6783 12.4564 17.5216 12.5119 18.3635C12.5675 19.2053 12.8159 20.0231 13.2381 20.7535C13.2736 20.8148 13.2956 20.883 13.3027 20.9535C13.3098 21.0239 13.3018 21.0951 13.2794 21.1623L12.5 23.4998L14.8375 22.7204C14.8884 22.703 14.9418 22.6942 14.9956 22.6942C15.0834 22.6943 15.1697 22.7176 15.2456 22.7617C16.0817 23.2454 17.0305 23.5004 17.9965 23.501C18.9625 23.5016 19.9116 23.2478 20.7484 22.7651C21.5851 22.2824 22.2799 21.5879 22.763 20.7513C23.246 19.9148 23.5002 18.9658 23.5 17.9998Z" fill="#6D0DF2"/>
</svg>
