<svg width="32" height="32" viewBox="0 0 32 32" fill="none" xmlns="http://www.w3.org/2000/svg">
<g opacity="0.8">
<rect width="32" height="32" rx="16" fill="#E2CFFC"/>
<path d="M22.1163 14.4262C21.8806 14.18 21.6369 13.9262 21.545 13.7031C21.46 13.4988 21.455 13.16 21.45 12.8319C21.4406 12.2219 21.4306 11.5306 20.95 11.05C20.4694 10.5694 19.7781 10.5594 19.1681 10.55C18.84 10.545 18.5013 10.54 18.2969 10.455C18.0744 10.3631 17.82 10.1194 17.5737 9.88375C17.1425 9.46937 16.6525 9 16 9C15.3475 9 14.8581 9.46937 14.4262 9.88375C14.18 10.1194 13.9262 10.3631 13.7031 10.455C13.5 10.54 13.16 10.545 12.8319 10.55C12.2219 10.5594 11.5306 10.5694 11.05 11.05C10.5694 11.5306 10.5625 12.2219 10.55 12.8319C10.545 13.16 10.54 13.4988 10.455 13.7031C10.3631 13.9256 10.1194 14.18 9.88375 14.4262C9.46937 14.8575 9 15.3475 9 16C9 16.6525 9.46937 17.1419 9.88375 17.5737C10.1194 17.82 10.3631 18.0737 10.455 18.2969C10.54 18.5013 10.545 18.84 10.55 19.1681C10.5594 19.7781 10.5694 20.4694 11.05 20.95C11.5306 21.4306 12.2219 21.4406 12.8319 21.45C13.16 21.455 13.4988 21.46 13.7031 21.545C13.9256 21.6369 14.18 21.8806 14.4262 22.1163C14.8575 22.5306 15.3475 23 16 23C16.6525 23 17.1419 22.5306 17.5737 22.1163C17.82 21.8806 18.0737 21.6369 18.2969 21.545C18.5013 21.46 18.84 21.455 19.1681 21.45C19.7781 21.4406 20.4694 21.4306 20.95 20.95C21.4306 20.4694 21.4406 19.7781 21.45 19.1681C21.455 18.84 21.46 18.5013 21.545 18.2969C21.6369 18.0744 21.8806 17.82 22.1163 17.5737C22.5306 17.1425 23 16.6525 23 16C23 15.3475 22.5306 14.8581 22.1163 14.4262ZM21.3944 16.8819C21.095 17.1944 20.785 17.5175 20.6206 17.9144C20.4631 18.2956 20.4563 18.7312 20.45 19.1531C20.4437 19.5906 20.4369 20.0487 20.2425 20.2425C20.0481 20.4363 19.5931 20.4437 19.1531 20.45C18.7312 20.4563 18.2956 20.4631 17.9144 20.6206C17.5175 20.785 17.1944 21.095 16.8819 21.3944C16.5694 21.6937 16.25 22 16 22C15.75 22 15.4281 21.6925 15.1181 21.3944C14.8081 21.0962 14.4825 20.785 14.0856 20.6206C13.7044 20.4631 13.2688 20.4563 12.8469 20.45C12.4094 20.4437 11.9512 20.4369 11.7575 20.2425C11.5638 20.0481 11.5562 19.5931 11.55 19.1531C11.5438 18.7312 11.5369 18.2956 11.3794 17.9144C11.215 17.5175 10.905 17.1944 10.6056 16.8819C10.3062 16.5694 10 16.25 10 16C10 15.75 10.3075 15.4281 10.6056 15.1181C10.9037 14.8081 11.215 14.4825 11.3794 14.0856C11.5369 13.7044 11.5438 13.2688 11.55 12.8469C11.5562 12.4094 11.5631 11.9512 11.7575 11.7575C11.9519 11.5638 12.4069 11.5562 12.8469 11.55C13.2688 11.5438 13.7044 11.5369 14.0856 11.3794C14.4825 11.215 14.8056 10.905 15.1181 10.6056C15.4306 10.3062 15.75 10 16 10C16.25 10 16.5719 10.3075 16.8819 10.6056C17.1919 10.9037 17.5175 11.215 17.9144 11.3794C18.2956 11.5369 18.7312 11.5438 19.1531 11.55C19.5906 11.5562 20.0487 11.5631 20.2425 11.7575C20.4363 11.9519 20.4437 12.4069 20.45 12.8469C20.4563 13.2688 20.4631 13.7044 20.6206 14.0856C20.785 14.4825 21.095 14.8056 21.3944 15.1181C21.6937 15.4306 22 15.75 22 16C22 16.25 21.6925 16.5719 21.3944 16.8819ZM18.8538 14.1462C18.9002 14.1927 18.9371 14.2478 18.9623 14.3085C18.9874 14.3692 19.0004 14.4343 19.0004 14.5C19.0004 14.5657 18.9874 14.6308 18.9623 14.6915C18.9371 14.7522 18.9002 14.8073 18.8538 14.8538L15.3538 18.3538C15.3073 18.4002 15.2522 18.4371 15.1915 18.4623C15.1308 18.4874 15.0657 18.5004 15 18.5004C14.9343 18.5004 14.8692 18.4874 14.8085 18.4623C14.7478 18.4371 14.6927 18.4002 14.6462 18.3538L13.1462 16.8538C13.0524 16.7599 12.9997 16.6327 12.9997 16.5C12.9997 16.3673 13.0524 16.2401 13.1462 16.1462C13.2401 16.0524 13.3673 15.9997 13.5 15.9997C13.6327 15.9997 13.7599 16.0524 13.8538 16.1462L15 17.2931L18.1462 14.1462C18.1927 14.0998 18.2478 14.0629 18.3085 14.0377C18.3692 14.0126 18.4343 13.9996 18.5 13.9996C18.5657 13.9996 18.6308 14.0126 18.6915 14.0377C18.7522 14.0629 18.8073 14.0998 18.8538 14.1462Z" fill="#6D0DF2"/>
</g>
</svg>
