<svg width="25" height="24" viewBox="0 0 25 24" fill="none" xmlns="http://www.w3.org/2000/svg">
<path d="M7.125 9.75C7.125 9.55109 7.20402 9.36032 7.34467 9.21967C7.48532 9.07902 7.67609 9 7.875 9H16.875C17.0739 9 17.2647 9.07902 17.4053 9.21967C17.546 9.36032 17.625 9.55109 17.625 9.75C17.625 9.94891 17.546 10.1397 17.4053 10.2803C17.2647 10.421 17.0739 10.5 16.875 10.5H7.875C7.67609 10.5 7.48532 10.421 7.34467 10.2803C7.20402 10.1397 7.125 9.94891 7.125 9.75ZM7.875 13.5H16.875C17.0739 13.5 17.2647 13.421 17.4053 13.2803C17.546 13.1397 17.625 12.9489 17.625 12.75C17.625 12.5511 17.546 12.3603 17.4053 12.2197C17.2647 12.079 17.0739 12 16.875 12H7.875C7.67609 12 7.48532 12.079 7.34467 12.2197C7.20402 12.3603 7.125 12.5511 7.125 12.75C7.125 12.9489 7.20402 13.1397 7.34467 13.2803C7.48532 13.421 7.67609 13.5 7.875 13.5ZM22.125 5.25V19.5C22.1249 19.6278 22.0922 19.7535 22.0299 19.8651C21.9676 19.9768 21.8778 20.0706 21.769 20.1378C21.6603 20.2049 21.5361 20.2432 21.4084 20.2489C21.2807 20.2546 21.1537 20.2275 21.0394 20.1703L18.375 18.8381L15.7106 20.1703C15.6064 20.2225 15.4915 20.2496 15.375 20.2496C15.2585 20.2496 15.1436 20.2225 15.0394 20.1703L12.375 18.8381L9.71063 20.1703C9.60643 20.2225 9.49152 20.2496 9.375 20.2496C9.25848 20.2496 9.14357 20.2225 9.03937 20.1703L6.375 18.8381L3.71063 20.1703C3.59631 20.2275 3.46927 20.2546 3.34157 20.2489C3.21387 20.2432 3.08974 20.2049 2.98097 20.1378C2.87221 20.0706 2.78241 19.9768 2.72011 19.8651C2.65781 19.7535 2.62507 19.6278 2.625 19.5V5.25C2.625 4.85218 2.78304 4.47064 3.06434 4.18934C3.34564 3.90804 3.72718 3.75 4.125 3.75H20.625C21.0228 3.75 21.4044 3.90804 21.6857 4.18934C21.967 4.47064 22.125 4.85218 22.125 5.25ZM20.625 5.25H4.125V18.2869L6.03937 17.3287C6.14357 17.2766 6.25849 17.2495 6.375 17.2495C6.49151 17.2495 6.60643 17.2766 6.71063 17.3287L9.375 18.6619L12.0394 17.3287C12.1436 17.2766 12.2585 17.2495 12.375 17.2495C12.4915 17.2495 12.6064 17.2766 12.7106 17.3287L15.375 18.6619L18.0394 17.3287C18.1436 17.2766 18.2585 17.2495 18.375 17.2495C18.4915 17.2495 18.6064 17.2766 18.7106 17.3287L20.625 18.2869V5.25Z" fill="#6D0DF2"/>
</svg>
