<svg width="16" height="16" viewBox="0 0 16 16" fill="none" xmlns="http://www.w3.org/2000/svg">
<path d="M11 10C10.6665 9.99994 10.3363 10.0668 10.029 10.1966C9.72178 10.3263 9.4437 10.5165 9.21125 10.7557L6.33 8.9038C6.55664 8.32261 6.55664 7.67749 6.33 7.0963L9.21125 5.24442C9.64403 5.68775 10.226 5.95458 10.8444 5.99319C11.4627 6.0318 12.0734 5.83944 12.5579 5.45339C13.0425 5.06735 13.3665 4.51513 13.467 3.90379C13.5676 3.29246 13.4375 2.66557 13.1021 2.14466C12.7667 1.62375 12.2499 1.24593 11.6517 1.08445C11.0536 0.922981 10.4168 0.989355 9.86483 1.27071C9.31286 1.55206 8.88501 2.02835 8.66425 2.60723C8.44349 3.18611 8.44554 3.82634 8.67 4.4038L5.78875 6.25567C5.44179 5.89947 4.99649 5.65483 4.50977 5.55301C4.02305 5.4512 3.51703 5.49685 3.05639 5.68411C2.59575 5.87138 2.20141 6.19176 1.9238 6.6043C1.64618 7.01684 1.49789 7.5028 1.49789 8.00005C1.49789 8.4973 1.64618 8.98326 1.9238 9.3958C2.20141 9.80834 2.59575 10.1287 3.05639 10.316C3.51703 10.5033 4.02305 10.5489 4.50977 10.4471C4.99649 10.3453 5.44179 10.1006 5.78875 9.74442L8.67 11.5963C8.47698 12.0941 8.44842 12.6407 8.58849 13.1559C8.72857 13.6712 9.02993 14.128 9.44844 14.4596C9.86695 14.7912 10.3806 14.98 10.9142 14.9985C11.4479 15.0171 11.9734 14.8642 12.4139 14.5625C12.8544 14.2607 13.1867 13.8258 13.3621 13.3215C13.5376 12.8173 13.5469 12.27 13.3889 11.76C13.2308 11.25 12.9137 10.804 12.4838 10.4873C12.0539 10.1706 11.5339 9.99985 11 10ZM11 2.00005C11.2967 2.00005 11.5867 2.08802 11.8334 2.25284C12.08 2.41767 12.2723 2.65193 12.3858 2.92602C12.4994 3.20011 12.5291 3.50171 12.4712 3.79268C12.4133 4.08366 12.2704 4.35093 12.0607 4.56071C11.8509 4.77049 11.5836 4.91335 11.2926 4.97123C11.0017 5.0291 10.7001 4.9994 10.426 4.88587C10.1519 4.77234 9.91762 4.58008 9.75279 4.3334C9.58797 4.08673 9.5 3.79672 9.5 3.50005C9.5 3.10222 9.65803 2.72069 9.93934 2.43939C10.2206 2.15808 10.6022 2.00005 11 2.00005ZM4 9.50005C3.70333 9.50005 3.41332 9.41208 3.16664 9.24725C2.91997 9.08243 2.72771 8.84816 2.61418 8.57407C2.50065 8.29998 2.47094 7.99839 2.52882 7.70741C2.5867 7.41644 2.72956 7.14917 2.93934 6.93939C3.14912 6.72961 3.41639 6.58675 3.70736 6.52887C3.99833 6.47099 4.29993 6.5007 4.57402 6.61423C4.84811 6.72776 5.08238 6.92002 5.2472 7.16669C5.41202 7.41337 5.5 7.70338 5.5 8.00005C5.5 8.39787 5.34196 8.7794 5.06066 9.06071C4.77935 9.34201 4.39782 9.50005 4 9.50005ZM11 14C10.7033 14 10.4133 13.9121 10.1666 13.7473C9.91997 13.5824 9.72771 13.3482 9.61418 13.0741C9.50065 12.8 9.47094 12.4984 9.52882 12.2074C9.5867 11.9164 9.72956 11.6492 9.93934 11.4394C10.1491 11.2296 10.4164 11.0867 10.7074 11.0289C10.9983 10.971 11.2999 11.0007 11.574 11.1142C11.8481 11.2278 12.0824 11.42 12.2472 11.6667C12.412 11.9134 12.5 12.2034 12.5 12.5C12.5 12.8979 12.342 13.2794 12.0607 13.5607C11.7794 13.842 11.3978 14 11 14Z" fill="black"/>
</svg>
